<svg xmlns="http://www.w3.org/2000/svg" version="1.1" xmlns:xlink="http://www.w3.org/1999/xlink" viewBox="0 0 8.098499799008398 7.414662454536008"><g transform="matrix(0.8515332171939579,0,0,0.8515332171939579,4.049675886040026,5.522425780837613)"><rect width="9.391263320137098" height="9.391263320137098" x="-4.6961319183405985" y="-6.827192140528556" fill="#ffffff"></rect><g transform="matrix(1,0,0,1,0,0)"><path d=" M -2.211988407152464 0.76123785877412 L -1.7653768319655219 0.21574441160079375 L -1.6137219161556327 0.33990876441872375 L -2.0603334913425746 0.88540221159205 L -2.211988407152464 0.76123785877412 M -2.2729259266443775 -0.3527904129504267 L -2.1490238575480887 -0.20092113602563688 L -2.289320056906435 0.2503813971443013 L -1.9840318165576227 0.00131295212421087 L -1.860129747461334 0.15318222904900072 L -2.406394238440808 0.5988503857473859 L -2.5302963075370966 0.4469811088225961 L -2.3861258919306687 -0.007482191416124995 L -2.6952883485275625 0.24474702067274834 L -2.8191904176238514 0.09287774374795854 L -2.2729259266443775 -0.3527904129504267 M -3.247771451213058 -0.8068171674967274 L -2.5038776057882655 -0.8587396745540243 L -2.4057606923013584 -0.6277113834557202 L -2.9592842713192833 -0.12753876578139461 L -3.0413741192565364 -0.32082936789551364 L -2.635419163036888 -0.6670685533160889 L -3.1660725073136016 -0.6144469968212469 L -3.247771451213058 -0.8068171674967274 M -3.170685290454674 -1.2531722614052418 L -3.0571466053096046 -1.2714470247560707 L -3.0929015770829653 -1.4935879304746846 L -2.9457949328515274 -1.5172656673379326 L -2.9100399610781666 -1.2951247616193184 L -2.784653760961438 -1.31530645679806 L -2.82517606230458 -1.5670661499458225 L -2.6701710747587026 -1.5920151746943452 L -2.598502220226322 -1.146746070342812 L -3.2945437248113127 -1.0347138254529487 L -3.3662125793436934 -1.4799829298044815 L -3.211207591797816 -1.5049319545530044 L -3.170685290454674 -1.2531722614052418 M -2.6292355808235963 -2.3396631609064635 L -2.6460345032581145 -2.144384395534908 L -3.0609546681142477 -1.918114077561562 L -2.6684044969081615 -1.884344815116663 L -2.6852034193426797 -1.6890660497451075 L -3.387609182541387 -1.7494907452366142 L -3.370810260106869 -1.9447695106081697 L -2.950908494093298 -2.17061128464186 L -3.348440266456822 -2.204809091026415 L -3.331641344022304 -2.4000878563979704 L -2.6292355808235963 -2.3396631609064635 M -3.0815558628891404 -3.1842984805188617 L -2.934575828726805 -3.13202162562457 L -2.9975761410353106 -2.954891840864833 L -2.480319482348632 -2.770917524602229 L -2.5460006590106907 -2.5862503021931413 L -3.0632573176973694 -2.770224618455745 L -3.1255874139174864 -2.5949791931083457 L -3.2725674480798217 -2.6472560480026375 L -3.0815558628891404 -3.1842984805188617 M -2.3338680782436505 -3.168288814108638 Q -2.419185102464855 -3.126190650514029 -2.51464886790481 -3.1329114754652685 Q -2.610112633344765 -3.1396323004165083 -2.6958449330030896 -3.19850481348751 Q -2.781577232661414 -3.257377326558512 -2.8221310580255308 -3.3440600079218425 Q -2.862684883389648 -3.4307426892851733 -2.8536201449222416 -3.5252034246015866 Q -2.8445554064548357 -3.6196641599180004 -2.7885133026660935 -3.7012747144004434 Q -2.7319051170208994 -3.7837096179180634 -2.6472833082455094 -3.82567864792331 Q -2.562661499470119 -3.8676476779285567 -2.46748077495839 -3.860514678459729 Q -2.3723000504466607 -3.8533816789909014 -2.286567750788336 -3.7945091659198993 Q -2.200835451130012 -3.7356366528488976 -2.159998584837669 -3.649366146003155 Q -2.119161718545326 -3.5630956391574125 -2.127814282495144 -3.468351862912773 Q -2.136466846444962 -3.3736080866681335 -2.1925089502337043 -3.2919975321856905 Q -2.2485510540224465 -3.210386977703247 -2.3338680782436505 -3.168288814108638 M -2.31585287736985 -3.5204478016944676 Q -2.3316214193378246 -3.5840449956907774 -2.3992180402222725 -3.6304637079198363 Q -2.468463359177073 -3.6780145838617995 -2.533068848138778 -3.669610370869554 Q -2.5976743371004827 -3.661206157877309 -2.6401304763343783 -3.5993799802390942 Q -2.6831526974247257 -3.5367294535657035 -2.6675132890461137 -3.4738274750152076 Q -2.6518738806675017 -3.410925496464712 -2.5826285617127014 -3.363374620522749 Q -2.514207591793077 -3.3163898264372382 -2.449885143759598 -3.3243818649118952 Q -2.385562695726119 -3.3323739033865527 -2.3425404746357716 -3.3950244300599435 Q -2.300084335401876 -3.456850607698158 -2.31585287736985 -3.5204478016944676 M -1.651575312665311 -3.8815339737836747 L -1.9259689226055001 -3.990658429447798 L -1.942053059545297 -3.977156557766366 L -1.7748870292037522 -3.778019624226026 L -1.9250056406418548 -3.652002155199323 L -2.3782827613756585 -4.191969609606783 L -2.141616174975793 -4.390640007205004 Q -2.0765137159337588 -4.445290440201278 -2.0123580352646986 -4.4606298873193975 Q -1.9482023545956384 -4.475969334437517 -1.8921132831771779 -4.455813291487205 Q -1.8360242117587173 -4.435657248536893 -1.7948756504438756 -4.386638926434655 Q -1.7485835189646786 -4.331493314069638 -1.7437964428924835 -4.264354771467947 Q -1.7390093668202882 -4.197216228866257 -1.782430860094174 -4.13073635279939 L -1.483840741721717 -4.022339207032899 L -1.651575312665311 -3.8815339737836747 M -2.028207859798247 -4.079788669667925 L -1.953914465362043 -4.142154457910733 Q -1.9232780140481447 -4.167872308732509 -1.920175767531539 -4.195283548517499 Q -1.9170735210149334 -4.222694788302489 -1.940219586754532 -4.250267594484997 Q -1.9620797599530417 -4.276308578101811 -1.9903183935270305 -4.278063449571176 Q -2.018557027101019 -4.279818321040541 -2.0484275671320704 -4.254743416489309 L -2.122720961568274 -4.192377628246502 L -2.028207859798247 -4.079788669667925 M -1.1347630835334144 -4.979994913763811 L -1.1522370087951121 -4.439107067777281 L -1.0560674732860982 -4.236801802299635 L -1.2339877290856343 -4.152224130445726 L -1.3301572645946482 -4.354529395923371 L -1.760644998604879 -4.6824704132827994 L -1.558339733127234 -4.778639948791813 L -1.3295720251911634 -4.586220262154305 L -1.3343589034912697 -4.885113363105365 L -1.1347630835334144 -4.979994913763811 M 0.18503752688198472 -5.177789121207344 L 0.2321922383677798 -4.474367886679489 L 0.03663115756287261 -4.461258208025282 L 0.010612458601206964 -4.849387087786042 L -0.09607100441188587 -4.452362354652784 L -0.25970374549354286 -4.441393031697224 L -0.41962302539306656 -4.823552453818958 L -0.3934036680846529 -4.432430292209144 L -0.5889647488895601 -4.4193206135549365 L -0.636119460375355 -5.122741848082792 L -0.3996501943000336 -5.138593857475889 L -0.19241272426893513 -4.693458337645007 L -0.05043397857698506 -5.16200399792983 L 0.18503752688198472 -5.177789121207344 M 0.806637088086683 -4.451218698899527 L 0.5643562474963439 -4.512862792556898 L 0.49917327664422173 -4.410783508121262 L 0.2995338639977824 -4.461578241294936 L 0.7224349122384376 -5.081440083479914 L 0.9414567921321041 -5.025713822813651 L 1.0157160287828244 -4.2793583004437465 L 0.8151074927740238 -4.33039960999205 L 0.806637088086683 -4.451218698899527 M 0.7961364995253993 -4.608669445610575 L 0.7787025374014587 -4.848369376700805 L 0.6497988718088346 -4.645902478179627 L 0.7961364995253993 -4.608669445610575 M 1.6371435176788347 -3.916375972697312 L 1.4683672676842714 -4.016028255349405 L 1.443940727461535 -4.488003195502743 L 1.2436193021302864 -4.1487284888810185 L 1.074843052135723 -4.248380771533112 L 1.43328621167514 -4.855458609523761 L 1.6020624616697032 -4.755806326871667 L 1.6239468518247842 -4.279525870136835 L 1.826810427223688 -4.623106093340054 L 1.9955866772182513 -4.52345381068796 L 1.6371435176788347 -3.916375972697312 M 2.1146189799233555 -3.597852579168825 L 1.9436209602815901 -3.7802249380354978 L 1.8337379762173724 -3.72928644754802 L 1.692835608032558 -3.8795612712541585 L 2.38291162422831 -4.174296901728996 L 2.5374938339844655 -4.009432289313525 L 2.1983057540936155 -3.3404685784442734 L 2.0567193938302344 -3.491472891585879 L 2.1146189799233555 -3.597852579168825 M 2.1905267833935733 -3.736196373291752 L 2.3048669767088823 -3.9475877643005104 L 2.087243979529947 -3.846349278047222 L 2.1905267833935733 -3.736196373291752 M 2.8566307554658645 -3.0956392263398724 Q 2.8738815275578986 -3.1234854264797245 2.8738781782596257 -3.1565799877969893 Q 2.8738748289613527 -3.189674549114254 2.8557413535335323 -3.2253281193269077 Q 2.8221944239920638 -3.291287224220317 2.7601433220948195 -3.3074089720578765 Q 2.6980922201975757 -3.323530719895436 2.6258937405169522 -3.2868104321540987 Q 2.5447818682831653 -3.245556775555807 2.5230700819547853 -3.183467337368376 Q 2.5013582956264053 -3.121377899180945 2.5407986046819158 -3.0438313839684237 Q 2.587492303908554 -2.9520234406708408 2.6903336776235767 -2.954964843806605 L 2.6010263111415592 -3.130558677103924 L 2.726705146141163 -3.1944791779869925 L 2.8926264463057234 -2.868249010541212 L 2.7232719877956186 -2.7821150022590633 Q 2.6629302411269067 -2.7772289395323897 2.5990811262029556 -2.7946800289948865 Q 2.535232011279004 -2.8121311184573834 2.476327916509244 -2.8584620759194856 Q 2.4174238217394843 -2.904793033381588 2.377983512683974 -2.9823395485941093 Q 2.329929802800249 -3.0768215096576412 2.3335387827329575 -3.170092487265069 Q 2.337147762665666 -3.263363464872497 2.389618420560497 -3.339975017918259 Q 2.442089078455328 -3.416586570964021 2.535679700263544 -3.4641869439620505 Q 2.628378982816443 -3.511333980074385 2.7211966235381757 -3.5086163393969922 Q 2.814014264259908 -3.5058986987196 2.8912904881181385 -3.454327047338123 Q 2.968566711976369 -3.4027553959566452 3.016620421860094 -3.3082734348931133 Q 3.076914227657598 -3.18972531393604 3.0593088243728626 -3.083165238039005 Q 3.041703421088127 -2.9766051621419702 2.9522848383476195 -2.9075666434681247 L 2.8566307554658645 -3.0956392263398724 M 3.1279016812578027 -2.5295251442510547 L 3.0158416273742414 -2.503688265112633 L 3.0663920430798495 -2.284440333601318 L 2.9212011906568005 -2.250964724978494 L 2.870650774951193 -2.4702126564898084 L 2.7468974980536953 -2.441679755180421 L 2.8041879691867173 -2.1931987661342642 L 2.6512016347543774 -2.1579258093974625 L 2.549876134828915 -2.597396107671254 L 3.236852986897702 -2.755787410215491 L 3.338178486823164 -2.3163171119416996 L 3.1851921523908246 -2.281044155204898 L 3.1279016812578027 -2.5295251442510547 M 3.3468654806473936 -1.2040356596750974 L 2.6427701761856595 -1.2397400324456391 L 2.652696498260874 -1.4354885142534404 L 3.0411973116447246 -1.4157878036041627 L 2.659432216811912 -1.5683178411944483 L 2.667737914874847 -1.7321073871968944 L 3.0660212415418715 -1.8460827867313907 L 2.674524277926269 -1.8659354308818197 L 2.6844506000014836 -2.061683912689621 L 3.388545904463218 -2.025979539919079 L 3.3765431578722698 -1.7892836716106664 L 2.9101668125901985 -1.6357059891130512 L 3.358817582737958 -1.4397328112395926 L 3.3468654806473936 -1.2040356596750974 M 3.050783656249993 -0.7710723136266193 L 2.9419120736809745 -0.8081125418780407 L 2.8694420618847154 -0.595102923808222 L 2.728382359251813 -0.6430941760644117 L 2.8008523710480726 -0.8561037941342303 L 2.6806202755153303 -0.8970090896814523 L 2.5984875954795696 -0.6555981892023245 L 2.4498542175375184 -0.7061661529890477 L 2.5951163300713542 -1.1331320985423288 L 3.262546466690119 -0.9060593949140492 L 3.1172843541562836 -0.47909344936076825 L 2.9686509762142324 -0.5296614131474915 L 3.050783656249993 -0.7710723136266193 M 2.0634606538520184 -0.06479789691990967 L 2.1697785573614032 -0.229456645224909 L 2.642352637198746 -0.23500092749484358 L 2.311354949279513 -0.44872161108003566 L 2.4176728527888978 -0.613380359385035 L 3.009940289294125 -0.23096136972117604 L 2.90362238578474 -0.06630262141617671 L 2.4268478276743104 -0.0634705305622979 L 2.7620459938666304 0.15296234443894996 L 2.6557280903572456 0.31762109274394934 L 2.0634606538520184 -0.06479789691990967 M 2.067423991435498 0.8933183552435694 L 1.9620562151443797 0.778280832150168 L 2.100691178872325 0.6512991530301024 L 1.7298776584631974 0.24645556214370895 L 1.8744119823497787 0.11407040731640658 L 2.245225502758906 0.5189139982028002 L 2.3823856264471925 0.3932831880095438 L 2.487753402738311 0.5083207111029453 L 2.067423991435498 0.8933183552435694" fill="#125b67" fill-rule="nonzero"></path></g><g transform="matrix(1,0,0,1,0,0)"><g transform="matrix(1,0,0,1,0,0)" clip-path="url(#SvgjsClipPath44742)"><g clip-path="url(#SvgjsClipPath447378996b6ee-2410-4fc2-818b-618679ec0a96)"><path d=" M 0 -3.3840674845255365 C 0.6093862578117895 -2.9437367692034693 1.061034997472492 -2.617539394054168 1.4091535987092563 -2.366279253736462 C 1.685075118375357 -2.1670820253764793 1.9098868228701456 -2.0045790232933354 2.096932067203383 -1.8695966909178208 L 2.096932067203383 -0.39575164783089134 L 0 -0.4531757292121781 L 0 -3.3840674845255365 Z" fill="#b44526" transform="matrix(1,0,0,1,0,0)" fill-rule="evenodd"></path></g><g clip-path="url(#SvgjsClipPath447378996b6ee-2410-4fc2-818b-618679ec0a96)"><path d=" M 0.37861769840192894 -1.1919448757793143 C 0.38326404523568414 -1.1923022870742193 0.3880295291677416 -1.1924214241725202 0.3926758760014972 -1.1924214241725202 C 0.5181272405128978 -1.1924214241725202 0.6198703224623152 -1.056724269207197 0.6198703224623152 -0.8950552268121634 L 0.6198703224623152 -0.43625826125337497 L 0.5725728944366488 -0.43756876933469124 L 0.5725728944366488 -0.8950552268121634 C 0.5725728944366488 -1.051005688488729 0.48679418365962324 -1.182652182111804 0.37861769840192894 -1.1919448757793143 Z" fill="#125b67" transform="matrix(1,0,0,1,0,0)" fill-rule="evenodd"></path></g><g clip-path="url(#SvgjsClipPath447378996b6ee-2410-4fc2-818b-618679ec0a96)"><path d=" M 0.6959989282769254 -0.43411379348394963 L 0.6959989282769254 -0.904586194676277 C 0.6959989282769254 -1.0054953169375844 0.7731997679762492 -1.0985413907109978 0.8685094466173893 -1.0985413907109978 C 0.9638191252585289 -1.0985413907109978 1.0410199649578527 -0.9956069377785663 1.0410199649578527 -0.872776589429797 L 1.0410199649578527 -0.42458282561983607 L 0.6961180653752268 -0.4341137934839501 Z" fill="#125b67" transform="matrix(1,0,0,1,0,0)" fill-rule="evenodd"></path></g><g clip-path="url(#SvgjsClipPath447378996b6ee-2410-4fc2-818b-618679ec0a96)"><path d=" M 1.0996354173221539 -0.42315318044021843 L 1.0996354173221539 -0.8687259280875481 C 1.0996354173221539 -0.9478329613596945 1.160276200357579 -1.02098313971677 1.234975160992573 -1.02098313971677 C 1.309674121627567 -1.02098313971677 1.370314904662992 -0.9402081870684036 1.370314904662992 -0.8438262745425504 L 1.370314904662992 -0.41564754324722886 L 1.0996354173221548 -0.42315318044021843 Z" fill="#125b67" transform="matrix(1,0,0,1,0,0)" fill-rule="evenodd"></path></g><g clip-path="url(#SvgjsClipPath447378996b6ee-2410-4fc2-818b-618679ec0a96)"><path d=" M 1.4171357842954517 -0.41445617226421483 L 1.4171357842954517 -0.8385842422172876 C 1.4171357842954517 -0.9024417269068525 1.4659819945990362 -0.961295453467756 1.526265366339557 -0.961295453467756 C 1.5865487380800785 -0.961295453467756 1.635394948383663 -0.8961274606968765 1.635394948383663 -0.8184500726043473 L 1.635394948383663 -0.40838018025084155 L 1.4171357842954517 -0.414337035165913 Z" fill="#125b67" transform="matrix(1,0,0,1,0,0)" fill-rule="evenodd"></path></g><g clip-path="url(#SvgjsClipPath447378996b6ee-2410-4fc2-818b-618679ec0a96)"><path d=" M 1.6733996827418172 -0.4074270834644307 L 1.6733996827418172 -0.8147568225570034 C 1.6733996827418172 -0.8672962829079314 1.7135488848693976 -0.91566594481831 1.7631099177627907 -0.91566594481831 C 1.8126709506561829 -0.91566594481831 1.8528201527837633 -0.8620542505826689 1.8528201527837633 -0.7981967658931048 L 1.8528201527837633 -0.40254246243407144 L 1.6732805456435154 -0.40742708346443024 Z" fill="#125b67" transform="matrix(1,0,0,1,0,0)" fill-rule="evenodd"></path></g><g clip-path="url(#SvgjsClipPath447378996b6ee-2410-4fc2-818b-618679ec0a96)"><path d=" M 1.8845106209319424 -0.4017085027459619 L 1.8845106209319424 -0.7896188948154017 C 1.8845106209319424 -0.8335804840886283 1.918226419751246 -0.8742062346094137 1.9596861299601418 -0.8742062346094137 C 2.0011458401690376 -0.8742062346094137 2.0348616389883407 -0.8292915485497763 2.0348616389883407 -0.7757989914124366 L 2.0348616389883407 -0.3975387043054117 L 1.8845106209319424 -0.4017085027459619 Z" fill="#125b67" transform="matrix(1,0,0,1,0,0)" fill-rule="evenodd"></path></g><g clip-path="url(#SvgjsClipPath447378996b6ee-2410-4fc2-818b-618679ec0a96)"><path d=" M 0.1602393972154168 -0.44876765657502515 L 0.1602393972154168 -0.9368723483159638 C 0.1602393972154168 -1.069710212922053 0.2525706483990211 -1.1924214241725202 0.36634657727688236 -1.1924214241725202 C 0.4801225061547436 -1.1924214241725202 0.5724537573383479 -1.056724269207197 0.5724537573383479 -0.8950552268121634 L 0.5724537573383479 -0.4375687693346908 L 0.1601202601171159 -0.44888679367332607 Z" fill="#acc4c9" transform="matrix(1,0,0,1,0,0)" fill-rule="evenodd"></path></g><g clip-path="url(#SvgjsClipPath447378996b6ee-2410-4fc2-818b-618679ec0a96)"><path d=" M 0.8438480672689939 -1.0965160600398733 C 0.9280779957681018 -1.081385648555592 0.9930077143423786 -0.9854802844229451 0.9930077143423786 -0.8728957265280979 L 0.9930077143423786 -0.4261316078977546 L 0.6959989282769254 -0.43423293058225143 L 0.6959989282769254 -0.9047053317745788 C 0.6959989282769254 -0.9967983087615808 0.7603329613596954 -1.0823387453420037 0.8438480672689939 -1.0966351971381747 Z" fill="#acc4c9" transform="matrix(1,0,0,1,0,0)" fill-rule="evenodd"></path></g><g clip-path="url(#SvgjsClipPath447378996b6ee-2410-4fc2-818b-618679ec0a96)"><path d=" M 1.0996354173221539 -0.42315318044021843 L 1.0996354173221539 -0.8687259280875481 C 1.0996354173221539 -0.940684735461609 1.1497921357070537 -1.0076397847070098 1.2149601284779337 -1.0191960832422486 C 1.2807238067403195 -1.0069249621172016 1.3313570735184252 -0.9318685901873032 1.3313570735184252 -0.8438262745425504 L 1.3313570735184252 -0.4167197771319415 L 1.0995162802238525 -0.42315318044021843 Z" fill="#acc4c9" transform="matrix(1,0,0,1,0,0)" fill-rule="evenodd"></path></g><g clip-path="url(#SvgjsClipPath447378996b6ee-2410-4fc2-818b-618679ec0a96)"><path d=" M 1.4171357842954517 -0.41445617226421483 L 1.4171357842954517 -0.8385842422172876 C 1.4171357842954517 -0.8962465977951775 1.4570467122264295 -0.949858292030819 1.509109624184152 -0.9597466711898375 C 1.5616490845350808 -0.9492626065393122 1.6019174237609621 -0.8890983718970924 1.6019174237609621 -0.8184500726043464 L 1.6019174237609621 -0.4092141399389515 L 1.4170166471971508 -0.414337035165913 Z" fill="#acc4c9" transform="matrix(1,0,0,1,0,0)" fill-rule="evenodd"></path></g><g clip-path="url(#SvgjsClipPath447378996b6ee-2410-4fc2-818b-618679ec0a96)"><path d=" M 1.6733996827418172 -0.4074270834644307 L 1.6733996827418172 -0.8147568225570034 C 1.6733996827418172 -0.8626499360741757 1.7067580702662166 -0.9070880737406073 1.7502431111462364 -0.9145937109335973 C 1.7939664262228598 -0.9066115253474014 1.8278013621404643 -0.8568122182574065 1.8278013621404643 -0.7981967658931048 L 1.8278013621404643 -0.4032572850238805 L 1.6733996827418172 -0.40742708346443024 Z" fill="#acc4c9" transform="matrix(1,0,0,1,0,0)" fill-rule="evenodd"></path></g><g clip-path="url(#SvgjsClipPath447378996b6ee-2410-4fc2-818b-618679ec0a96)"><path d=" M 1.8845106209319424 -0.40158936564766057 L 1.8845106209319424 -0.7896188948154017 C 1.8845106209319424 -0.8292915485497772 1.9120312906395718 -0.8662240490232187 1.9478915572283002 -0.8730148636263997 C 1.9841092351119336 -0.8657475006300128 2.011868179016166 -0.824287790421117 2.011868179016166 -0.7756798543141357 L 2.011868179016166 -0.3978961156003167 L 1.8846297580302434 -0.40147022854935965 Z" fill="#acc4c9" transform="matrix(1,0,0,1,0,0)" fill-rule="evenodd"></path></g><g clip-path="url(#SvgjsClipPath447378996b6ee-2410-4fc2-818b-618679ec0a96)"><path d=" M 0.1657197037372824 -3.0311833993567157 C 0.3303671735898517 -2.921696406017706 0.4810756029411545 -2.8212638321496044 0.6201085966589179 -2.7288134438676988 L 0.6201085966589179 -2.422273689938132 C 0.4810756029411549 -2.5024529570949907 0.3303671735898521 -2.5894230388550312 0.16571970373728284 -2.6842561691029654 L 0.16571970373728284 -3.031064262258414 Z" fill="#acc4c9" transform="matrix(1,0,0,1,0,0)" fill-rule="evenodd"></path></g><g clip-path="url(#SvgjsClipPath447378996b6ee-2410-4fc2-818b-618679ec0a96)"><path d=" M 0.6959989282769254 -2.6782993141878944 C 0.8195440992155034 -2.596094716359911 0.9340348506831728 -2.5197278363486975 1.04078169076125 -2.448722125761048 L 1.04078169076125 -2.1797105577964304 C 0.9340348506831728 -2.2411853005199656 0.8195440992155034 -2.307187252978955 0.6959989282769254 -2.3784312377632073 L 0.6959989282769254 -2.678180177089593 Z" fill="#acc4c9" transform="matrix(1,0,0,1,0,0)" fill-rule="evenodd"></path></g><g clip-path="url(#SvgjsClipPath447378996b6ee-2410-4fc2-818b-618679ec0a96)"><path d=" M 1.0993971431255516 -2.4097642946164823 C 1.1954216443564998 -2.345787672828617 1.285370153574076 -2.2859808494813016 1.3699574933680871 -2.229748139083029 L 1.3699574933680871 -1.9899251602022603 C 1.2856084277706792 -2.038652233407543 1.1956599185531025 -2.090476871168663 1.0993971431255516 -2.145875621878826 L 1.0993971431255516 -2.409645157518181 Z" fill="#acc4c9" transform="matrix(1,0,0,1,0,0)" fill-rule="evenodd"></path></g><g clip-path="url(#SvgjsClipPath447378996b6ee-2410-4fc2-818b-618679ec0a96)"><path d=" M 1.4166592359022459 -2.198653356426357 C 1.4936218014049665 -2.147424404156744 1.5661762942705346 -2.099173879344667 1.6347992628921562 -2.0535443706952208 L 1.6347992628921562 -1.8370722630815315 C 1.5664145684671373 -1.8766257797176045 1.4936218014049665 -1.9184429012214048 1.4166592359022459 -1.9627619017895348 L 1.4166592359022459 -2.1985342193280553 Z" fill="#acc4c9" transform="matrix(1,0,0,1,0,0)" fill-rule="evenodd"></path></g><g clip-path="url(#SvgjsClipPath447378996b6ee-2410-4fc2-818b-618679ec0a96)"><path d=" M 1.6729231343486113 -2.0281681687570177 C 1.7358275222517636 -1.986231910154916 1.7956343455990793 -1.9464401193222398 1.8524627414888593 -1.908673659160688 L 1.8524627414888593 -1.7115017614718295 C 1.7958726197956825 -1.7442644635047215 1.7360657964483672 -1.778695084913833 1.6729231343486113 -1.815031899895768 L 1.6729231343486113 -2.028168168757017 Z" fill="#acc4c9" transform="matrix(1,0,0,1,0,0)" fill-rule="evenodd"></path></g><g clip-path="url(#SvgjsClipPath447378996b6ee-2410-4fc2-818b-618679ec0a96)"><path d=" M 1.8841532096370384 -1.8877055298596375 C 1.9365735328896658 -1.8526792229590185 1.9867302512745662 -1.8193208354346193 2.0345042276934366 -1.7875112301881388 C 2.0345042276934366 -1.7271087213493166 2.0345042276934366 -1.6665870754121928 2.0347425018900394 -1.6065419778682746 C 1.986968525471168 -1.634062647575904 1.9368118070862677 -1.6630129624631498 1.8841532096370384 -1.6932737854317121 L 1.8841532096370384 -1.887586392761336 Z" fill="#acc4c9" transform="matrix(1,0,0,1,0,0)" fill-rule="evenodd"></path></g><g clip-path="url(#SvgjsClipPath447378996b6ee-2410-4fc2-818b-618679ec0a96)"><path d=" M 0.1657197037372824 -2.5852532404144815 C 0.3301288993932494 -2.4945899086070966 0.4810756029411545 -2.411313076894401 0.6201085966589179 -2.3347079226865843 L 0.6201085966589179 -2.0281681687570177 C 0.4810756029411549 -2.092502201839787 0.3301288993932494 -2.162197404346121 0.16548142954067968 -2.2383260101607316 C 0.16571970373728284 -2.3537698584148123 0.16571970373728284 -2.4694519808654958 0.16571970373728284 -2.5851341033161797 Z" fill="#acc4c9" transform="matrix(1,0,0,1,0,0)" fill-rule="evenodd"></path></g><g clip-path="url(#SvgjsClipPath447378996b6ee-2410-4fc2-818b-618679ec0a96)"><path d=" M 0.6959989282769254 -2.292890801182784 C 0.8195440992155034 -2.2248635180526706 0.9340348506831728 -2.1616017188546137 1.04078169076125 -2.1028671293920107 L 1.04078169076125 -1.833736424329092 C 0.934273124879776 -1.8830591830258818 0.8195440992155034 -1.936075191770016 0.6959989282769254 -1.9931418618563985 L 0.6959989282769254 -2.292890801182784 Z" fill="#acc4c9" transform="matrix(1,0,0,1,0,0)" fill-rule="evenodd"></path></g><g clip-path="url(#SvgjsClipPath447378996b6ee-2410-4fc2-818b-618679ec0a96)"><path d=" M 1.0993971431255516 -2.070580975752325 C 1.1956599185531025 -2.017564967008191 1.2856084277706792 -1.968003934114798 1.3699574933680871 -1.9214213286789408 C 1.3701957675646903 -1.8413611986203828 1.3701957675646903 -1.7610627943652226 1.3701957675646903 -1.6812409385032676 C 1.28572756486898 -1.720317906746135 1.1957790556514039 -1.7618967540533326 1.0995162802238516 -1.806573165916367 L 1.0995162802238516 -2.070580975752325 Z" fill="#acc4c9" transform="matrix(1,0,0,1,0,0)" fill-rule="evenodd"></path></g><g clip-path="url(#SvgjsClipPath447378996b6ee-2410-4fc2-818b-618679ec0a96)"><path d=" M 1.416897510098849 -1.8956877154458327 C 1.4938600756015692 -1.8532749084505253 1.5664145684671373 -1.813244843421247 1.635037537088758 -1.775478383259695 L 1.635037537088758 -1.5588871385477043 C 1.5664145684671373 -1.5905776066958832 1.493979212699871 -1.624174268416885 1.416897510098849 -1.6596771237107097 L 1.416897510098849 -1.8956877154458327 Z" fill="#acc4c9" transform="matrix(1,0,0,1,0,0)" fill-rule="evenodd"></path></g><g clip-path="url(#SvgjsClipPath447378996b6ee-2410-4fc2-818b-618679ec0a96)"><path d=" M 1.6729231343486113 -1.7543911168603428 C 1.7360657964483672 -1.7196030841563268 1.7957534826973807 -1.686721245025133 1.8524627414888593 -1.655269051073557 C 1.8527010156854615 -1.5895053728111705 1.8527010156854615 -1.523741694548784 1.8527010156854615 -1.4580971533846987 C 1.7958726197956825 -1.4843073150110115 1.7363040706449695 -1.5119471218169427 1.6731614085452144 -1.5411357109007915 C 1.6731614085452144 -1.6120222843901393 1.6731614085452144 -1.6831471320760902 1.6729231343486113 -1.7543911168603428 Z" fill="#acc4c9" transform="matrix(1,0,0,1,0,0)" fill-rule="evenodd"></path></g><g clip-path="url(#SvgjsClipPath447378996b6ee-2410-4fc2-818b-618679ec0a96)"><path d=" M 1.8841532096370384 -1.6377558976232471 C 1.9368118070862685 -1.6088055827360013 1.9868493883728675 -1.5811657759300701 2.0347425018900394 -1.5548364772054555 L 2.0347425018900394 -1.3737480877872899 C 1.986968525471168 -1.3959075880713545 1.9370500812828713 -1.419139322240132 1.884391483833641 -1.443562427391925 C 1.884391483833641 -1.5082538717695986 1.884391483833641 -1.5730644532455742 1.8841532096370384 -1.637875034721549 Z" fill="#acc4c9" transform="matrix(1,0,0,1,0,0)" fill-rule="evenodd"></path></g><g clip-path="url(#SvgjsClipPath447378996b6ee-2410-4fc2-818b-618679ec0a96)"><path d=" M 0.16548142954067968 -2.139323081472247 C 0.3301288993932494 -2.0673642740981863 0.4810756029411549 -2.001362321639197 0.6201085966589179 -1.9407215386037715 C 0.6201085966589179 -1.838263634064546 0.6198703224623152 -1.7361631408202247 0.6198703224623152 -1.6341817846742048 C 0.4810756029411545 -1.6825514465845832 0.3301288993932494 -1.7352100440338132 0.16548142954067968 -1.7925149883167988 L 0.16548142954067968 -2.139323081472247 Z" fill="#acc4c9" transform="matrix(1,0,0,1,0,0)" fill-rule="evenodd"></path></g><g clip-path="url(#SvgjsClipPath447378996b6ee-2410-4fc2-818b-618679ec0a96)"><path d=" M 0.6959989282769254 -1.9074822881776738 C 0.8195440992155034 -1.8535131826471285 0.9341539877814742 -1.8033564642622282 1.04078169076125 -1.7567738588263713 C 1.04078169076125 -1.6667062125104937 1.0410199649578527 -1.5771151145878222 1.0410199649578527 -1.4876431537634516 C 0.9342731248797755 -1.524813928433497 0.8195440992155034 -1.5647248563644738 0.6961180653752268 -1.6077333488512884 L 0.6961180653752268 -1.9074822881776738 Z" fill="#acc4c9" transform="matrix(1,0,0,1,0,0)" fill-rule="evenodd"></path></g><g clip-path="url(#SvgjsClipPath447378996b6ee-2410-4fc2-818b-618679ec0a96)"><path d=" M 1.0996354173221539 -1.7311593826915648 C 1.1956599185531025 -1.6891039869911615 1.2856084277706792 -1.6497887445516914 1.3700766304663885 -1.6128562440782492 C 1.3700766304663885 -1.5325578398230888 1.3700766304663885 -1.4527359839611345 1.3703149046629912 -1.372914128099179 C 1.285846701967281 -1.4023409913796316 1.1958981927497052 -1.433674048232906 1.099635417322153 -1.4671515728556064 L 1.099635417322153 -1.7311593826915648 Z" fill="#acc4c9" transform="matrix(1,0,0,1,0,0)" fill-rule="evenodd"></path></g><g clip-path="url(#SvgjsClipPath447378996b6ee-2410-4fc2-818b-618679ec0a96)"><path d=" M 1.416897510098849 -1.592245526072103 C 1.4938600756015692 -1.5586488643511014 1.5666528426637405 -1.5268392591046205 1.635037537088758 -1.4969358474309629 C 1.6352758112853611 -1.4247387658602995 1.6352758112853611 -1.352541684289636 1.6352758112853611 -1.2804637398172733 C 1.5666528426637405 -1.3044102965758606 1.4942174868964742 -1.3296673614157624 1.4171357842954517 -1.3564732085335827 C 1.4171357842954517 -1.4349845563142223 1.4171357842954517 -1.5136150411931621 1.416897510098849 -1.592245526072103 Z" fill="#acc4c9" transform="matrix(1,0,0,1,0,0)" fill-rule="evenodd"></path></g><g clip-path="url(#SvgjsClipPath447378996b6ee-2410-4fc2-818b-618679ec0a96)"><path d=" M 1.6731614085452144 -1.4802566536687636 C 1.7363040706449695 -1.4527359839611345 1.7959917568939834 -1.4266449594331219 1.8527010156854615 -1.401745305888124 C 1.8527010156854615 -1.3359816276257375 1.8527010156854615 -1.2702179493633512 1.8529392898820642 -1.2045734081992658 C 1.7961108939922843 -1.2243501665173024 1.7363040706449686 -1.2451991587200513 1.6733996827418172 -1.267120384807514 C 1.6733996827418172 -1.3380069582968614 1.6731614085452144 -1.409131805982812 1.6731614085452144 -1.4802566536687636 Z" fill="#acc4c9" transform="matrix(1,0,0,1,0,0)" fill-rule="evenodd"></path></g><g clip-path="url(#SvgjsClipPath447378996b6ee-2410-4fc2-818b-618679ec0a96)"><path d=" M 1.8842723467353402 -1.3879254024851588 C 1.93693094418457 -1.3649319425129836 1.9868493883728675 -1.3430107164255216 2.034623364791739 -1.3221617242227723 L 2.034623364791739 -1.1411924719029076 C 1.986968525471168 -1.1578716656651071 1.93693094418457 -1.1752656820171152 1.8845106209319424 -1.193612795155535 C 1.8842723467353402 -1.2583042395332087 1.8842723467353402 -1.3231148210091832 1.8842723467353402 -1.3879254024851588 Z" fill="#acc4c9" transform="matrix(1,0,0,1,0,0)" fill-rule="evenodd"></path></g><g clip-path="url(#SvgjsClipPath447378996b6ee-2410-4fc2-818b-618679ec0a96)"><path d=" M 0.16548142954067968 -1.6935120596283142 C 0.3301288993932494 -1.6403769137858784 0.4810756029411549 -1.591530703482294 0.6198703224623152 -1.546496880324356 L 0.6198703224623152 -1.2404336747879947 C 0.4808373287445522 -1.2729581026242833 0.3301288993932494 -1.3083418208198068 0.16548142954067968 -1.3469422406694687 L 0.16548142954067968 -1.6935120596283142 Z" fill="#acc4c9" transform="matrix(1,0,0,1,0,0)" fill-rule="evenodd"></path></g><g clip-path="url(#SvgjsClipPath447378996b6ee-2410-4fc2-818b-618679ec0a96)"><path d=" M 0.6959989282769254 -1.5218355009759608 C 0.8195440992155034 -1.4819245730449833 0.9341539877814742 -1.4449920725715417 1.0409008278595513 -1.4105614511624296 L 1.0409008278595513 -1.1417881573944149 C 0.9341539877814742 -1.166806948037714 0.8194249621172021 -1.193612795155535 0.6959989282769254 -1.2225631100427807 L 0.6959989282769254 -1.5218355009759608 Z" fill="#acc4c9" transform="matrix(1,0,0,1,0,0)" fill-rule="evenodd"></path></g><g clip-path="url(#SvgjsClipPath447378996b6ee-2410-4fc2-818b-618679ec0a96)"><path d=" M 1.0996354173221539 -1.391618652532503 C 1.1958981927497052 -1.3606430069741324 1.285846701967281 -1.331573554988585 1.3703149046629912 -1.3042911594775584 L 1.3703149046629912 -1.0644681805967897 C 1.2859658390655824 -1.0842449389148263 1.1958981927497052 -1.105570479510781 1.099635417322153 -1.1280873910897506 L 1.099635417322153 -1.391618652532503 Z" fill="#acc4c9" transform="matrix(1,0,0,1,0,0)" fill-rule="evenodd"></path></g><g clip-path="url(#SvgjsClipPath447378996b6ee-2410-4fc2-818b-618679ec0a96)"><path d=" M 1.4171357842954517 -1.2891607479932778 C 1.494098349798172 -1.2642610944482797 1.5666528426637405 -1.2407910860828988 1.6352758112853611 -1.218750722897136 C 1.6352758112853611 -1.1465536413264714 1.635514085481963 -1.0744756968541096 1.635514085481963 -1.0025168894800491 C 1.5668911168603428 -1.018600397750741 1.4943366239947742 -1.035637002807845 1.417374058492054 -1.0536267046513599 C 1.417374058492054 -1.1321380524319995 1.4171357842954517 -1.2106494002126382 1.4171357842954517 -1.2892798850915788 Z" fill="#acc4c9" transform="matrix(1,0,0,1,0,0)" fill-rule="evenodd"></path></g><g clip-path="url(#SvgjsClipPath447378996b6ee-2410-4fc2-818b-618679ec0a96)"><path d=" M 1.6733996827418172 -1.206360464673787 C 1.736542344841573 -1.1859880208642433 1.7961108939922852 -1.1666878109394125 1.8529392898820651 -1.1483406978009927 L 1.8529392898820651 -0.9514070743087375 C 1.7963491681888883 -0.9647504293184967 1.736542344841573 -0.9786894698197641 1.6736379569384199 -0.9934624700091406 C 1.6733996827418172 -1.0643490434984888 1.6733996827418172 -1.1352356169878366 1.6733996827418172 -1.206360464673787 Z" fill="#acc4c9" transform="matrix(1,0,0,1,0,0)" fill-rule="evenodd"></path></g><g clip-path="url(#SvgjsClipPath447378996b6ee-2410-4fc2-818b-618679ec0a96)"><path d=" M 1.8845106209319424 -1.1380949073470705 C 1.936930944184569 -1.1210583022899665 1.9870876625694693 -1.1048556569209733 2.034623364791739 -1.0894869712400888 C 2.034623364791739 -1.0290844624012667 2.034623364791739 -0.9688010906607456 2.0348616389883407 -0.908517718920224 C 1.9870876625694693 -0.919716606160558 1.9371692183811726 -0.9316303159907005 1.8845106209319424 -0.9439014371157479 L 1.8845106209319424 -1.1380949073470705 Z" fill="#acc4c9" transform="matrix(1,0,0,1,0,0)" fill-rule="evenodd"></path></g><g clip-path="url(#SvgjsClipPath447378996b6ee-2410-4fc2-818b-618679ec0a96)"><path d=" M 0.1657197037372824 -2.9530294628709806 L 0.1657197037372824 -3.0311833993567157 L 0.6201085966589179 -2.7288134438676988 L 0.5725728944366488 -2.6917618062959554 L 0.1657197037372824 -2.9530294628709806 Z" fill="#125b67" transform="matrix(1,0,0,1,0,0)" fill-rule="evenodd"></path></g><g clip-path="url(#SvgjsClipPath447378996b6ee-2410-4fc2-818b-618679ec0a96)"><path d=" M 0.6959989282769254 -2.6782993141878944 L 1.04078169076125 -2.448722125761048 L 0.9930077143423786 -2.4219162786432276 L 0.6959989282769254 -2.6125356359255076 L 0.6959989282769254 -2.6782993141878944 Z" fill="#125b67" transform="matrix(1,0,0,1,0,0)" fill-rule="evenodd"></path></g><g clip-path="url(#SvgjsClipPath447378996b6ee-2410-4fc2-818b-618679ec0a96)"><path d=" M 1.0993971431255516 -2.4097642946164823 L 1.3699574933680871 -2.229748139083029 L 1.331476210616727 -2.204610211341428 L 1.0993971431255516 -2.353650721316511 L 1.0993971431255516 -2.4097642946164823 Z" fill="#125b67" transform="matrix(1,0,0,1,0,0)" fill-rule="evenodd"></path></g><g clip-path="url(#SvgjsClipPath447378996b6ee-2410-4fc2-818b-618679ec0a96)"><path d=" M 1.4166592359022459 -2.198653356426357 L 1.6347992628921562 -2.0535443706952208 L 1.6020365608592635 -2.0310274591162516 L 1.4166592359022459 -2.149926283221074 L 1.4166592359022459 -2.198653356426357 Z" fill="#125b67" transform="matrix(1,0,0,1,0,0)" fill-rule="evenodd"></path></g><g clip-path="url(#SvgjsClipPath447378996b6ee-2410-4fc2-818b-618679ec0a96)"><path d=" M 1.6729231343486113 -2.0281681687570177 L 1.8524627414888593 -1.9087927962589897 L 1.8276822250421634 -1.8861567475817187 L 1.6729231343486113 -1.9855170875651076 L 1.6729231343486113 -2.0281681687570177 Z" fill="#125b67" transform="matrix(1,0,0,1,0,0)" fill-rule="evenodd"></path></g><g clip-path="url(#SvgjsClipPath447378996b6ee-2410-4fc2-818b-618679ec0a96)"><path d=" M 1.8841532096370384 -1.8877055298596375 L 2.0345042276934366 -1.7875112301881388 L 2.011868179016166 -1.767972746066705 L 1.8841532096370384 -1.8499390696980855 L 1.8841532096370384 -1.8877055298596375 Z" fill="#125b67" transform="matrix(1,0,0,1,0,0)" fill-rule="evenodd"></path></g><g clip-path="url(#SvgjsClipPath447378996b6ee-2410-4fc2-818b-618679ec0a96)"><path d=" M 0.1657197037372824 -2.5852532404144815 L 0.6201085966589179 -2.334827059784886 L 0.5725728944366488 -2.2927716640844826 L 0.1657197037372824 -2.5072184410270477 L 0.1657197037372824 -2.5852532404144815 Z" fill="#125b67" transform="matrix(1,0,0,1,0,0)" fill-rule="evenodd"></path></g><g clip-path="url(#SvgjsClipPath447378996b6ee-2410-4fc2-818b-618679ec0a96)"><path d=" M 0.6959989282769254 -2.292890801182784 L 1.04078169076125 -2.1028671293920107 L 0.9930077143423786 -2.0712957983421334 L 0.6959989282769254 -2.227841945510206 L 0.6959989282769254 -2.292890801182784 Z" fill="#125b67" transform="matrix(1,0,0,1,0,0)" fill-rule="evenodd"></path></g><g clip-path="url(#SvgjsClipPath447378996b6ee-2410-4fc2-818b-618679ec0a96)"><path d=" M 1.0993971431255516 -2.070580975752325 L 1.3699574933680871 -1.9214213286789408 L 1.331476210616727 -1.8930666992832015 L 1.0993971431255516 -2.0153013621404634 L 1.0993971431255516 -2.070580975752325 Z" fill="#125b67" transform="matrix(1,0,0,1,0,0)" fill-rule="evenodd"></path></g><g clip-path="url(#SvgjsClipPath447378996b6ee-2410-4fc2-818b-618679ec0a96)"><path d=" M 1.416897510098849 -1.8956877154458327 L 1.635037537088758 -1.775478383259695 L 1.6020365608592635 -1.7505787297146969 L 1.416897510098849 -1.8480328761252627 L 1.416897510098849 -1.8956877154458327 Z" fill="#125b67" transform="matrix(1,0,0,1,0,0)" fill-rule="evenodd"></path></g><g clip-path="url(#SvgjsClipPath447378996b6ee-2410-4fc2-818b-618679ec0a96)"><path d=" M 1.6729231343486113 -1.7543911168603428 L 1.8524627414888593 -1.655269051073557 L 1.8276822250421634 -1.6316799056098747 L 1.673042271446913 -1.7131696808480497 L 1.6729231343486113 -1.7543911168603428 Z" fill="#125b67" transform="matrix(1,0,0,1,0,0)" fill-rule="evenodd"></path></g><g clip-path="url(#SvgjsClipPath447378996b6ee-2410-4fc2-818b-618679ec0a96)"><path d=" M 1.8841532096370384 -1.6377558976232471 L 2.034623364791739 -1.5548364772054555 L 2.011868179016166 -1.534702307592515 L 1.8841532096370384 -1.6018956310345183 L 1.8841532096370384 -1.6377558976232471 Z" fill="#125b67" transform="matrix(1,0,0,1,0,0)" fill-rule="evenodd"></path></g><g clip-path="url(#SvgjsClipPath447378996b6ee-2410-4fc2-818b-618679ec0a96)"><path d=" M 0.16548142954067968 -2.139323081472247 L 0.6201085966589179 -1.9407215386037715 L 0.5725728944366488 -1.9030742155405211 L 0.16548142954067968 -2.072368032226846 L 0.16548142954067968 -2.139323081472247 Z" fill="#125b67" transform="matrix(1,0,0,1,0,0)" fill-rule="evenodd"></path></g><g clip-path="url(#SvgjsClipPath447378996b6ee-2410-4fc2-818b-618679ec0a96)"><path d=" M 0.6959989282769254 -1.9074822881776738 L 1.04078169076125 -1.7568929959246724 L 0.9930077143423786 -1.7283000923323306 L 0.6959989282769254 -1.8518452632709081 L 0.6959989282769254 -1.9074822881776738 Z" fill="#125b67" transform="matrix(1,0,0,1,0,0)" fill-rule="evenodd"></path></g><g clip-path="url(#SvgjsClipPath447378996b6ee-2410-4fc2-818b-618679ec0a96)"><path d=" M 1.0996354173221539 -1.7311593826915648 L 1.3701957675646903 -1.612975381176551 L 1.331476210616727 -1.587599179238348 L 1.0996354173221539 -1.6839810917642006 L 1.0996354173221539 -1.7311593826915648 Z" fill="#125b67" transform="matrix(1,0,0,1,0,0)" fill-rule="evenodd"></path></g><g clip-path="url(#SvgjsClipPath447378996b6ee-2410-4fc2-818b-618679ec0a96)"><path d=" M 1.416897510098849 -1.592245526072103 L 1.635037537088758 -1.4969358474309629 L 1.6020365608592635 -1.475133758441802 L 1.41701664719715 -1.5520963239445225 L 1.416897510098849 -1.592245526072103 Z" fill="#125b67" transform="matrix(1,0,0,1,0,0)" fill-rule="evenodd"></path></g><g clip-path="url(#SvgjsClipPath447378996b6ee-2410-4fc2-818b-618679ec0a96)"><path d=" M 1.6731614085452144 -1.4802566536687636 L 1.8527010156854615 -1.4018644429864258 L 1.8276822250421634 -1.3813728620785808 L 1.6731614085452144 -1.4455877580630485 L 1.6731614085452144 -1.4802566536687636 Z" fill="#125b67" transform="matrix(1,0,0,1,0,0)" fill-rule="evenodd"></path></g><g clip-path="url(#SvgjsClipPath447378996b6ee-2410-4fc2-818b-618679ec0a96)"><path d=" M 1.8842723467353402 -1.3879254024851588 L 2.034623364791739 -1.3221617242227723 L 2.011868179016166 -1.3047677078707642 L 1.8842723467353402 -1.3577837166148985 L 1.8842723467353402 -1.3879254024851588 Z" fill="#125b67" transform="matrix(1,0,0,1,0,0)" fill-rule="evenodd"></path></g><g clip-path="url(#SvgjsClipPath447378996b6ee-2410-4fc2-818b-618679ec0a96)"><path d=" M 2.034623364791739 -1.0894869712400892 L 2.011868179016166 -1.0678040193492295 L 1.8845106209319424 -1.1065235762971937 L 1.8845106209319424 -1.1380949073470705 L 2.034623364791739 -1.0894869712400892 Z" fill="#125b67" transform="matrix(1,0,0,1,0,0)" fill-rule="evenodd"></path></g><g clip-path="url(#SvgjsClipPath447378996b6ee-2410-4fc2-818b-618679ec0a96)"><path d=" M 1.8528201527837633 -1.1483406978009927 L 1.8276822250421634 -1.1237984555508995 L 1.6733996827418172 -1.1707384722816614 L 1.6733996827418172 -1.206360464673787 L 1.8528201527837633 -1.1483406978009927 Z" fill="#125b67" transform="matrix(1,0,0,1,0,0)" fill-rule="evenodd"></path></g><g clip-path="url(#SvgjsClipPath447378996b6ee-2410-4fc2-818b-618679ec0a96)"><path d=" M 1.4171357842954517 -1.2891607479932778 L 1.6351566741870598 -1.2186315857988337 L 1.6020365608592635 -1.1924214241725202 L 1.4171357842954517 -1.2485349974724915 L 1.4171357842954517 -1.2891607479932778 Z" fill="#125b67" transform="matrix(1,0,0,1,0,0)" fill-rule="evenodd"></path></g><g clip-path="url(#SvgjsClipPath447378996b6ee-2410-4fc2-818b-618679ec0a96)"><path d=" M 1.3703149046629912 -1.3041720223792566 L 1.331476210616727 -1.2746260220005041 L 1.0996354173221539 -1.345036047096646 L 1.0996354173221539 -1.391618652532503 L 1.3703149046629912 -1.3041720223792566 Z" fill="#125b67" transform="matrix(1,0,0,1,0,0)" fill-rule="evenodd"></path></g><g clip-path="url(#SvgjsClipPath447378996b6ee-2410-4fc2-818b-618679ec0a96)"><path d=" M 0.6959989282769254 -1.5218355009759608 L 0.6959989282769254 -1.467747258347114 L 0.9930077143423786 -1.3774413378346337 L 1.0409008278595513 -1.4105614511624296 L 0.6959989282769254 -1.5218355009759608 Z" fill="#125b67" transform="matrix(1,0,0,1,0,0)" fill-rule="evenodd"></path></g><g clip-path="url(#SvgjsClipPath447378996b6ee-2410-4fc2-818b-618679ec0a96)"><path d=" M 0.16548142954067968 -1.6935120596283142 L 0.6198703224623152 -1.5463777432260548 L 0.5725728944366488 -1.5052754443120626 L 0.16548142954067968 -1.6289397523489424 L 0.16548142954067968 -1.6935120596283142 Z" fill="#125b67" transform="matrix(1,0,0,1,0,0)" fill-rule="evenodd"></path></g><g clip-path="url(#SvgjsClipPath447378996b6ee-2410-4fc2-818b-618679ec0a96)"><path d=" M 1.635037537088758 -1.775478383259695 L 1.635037537088758 -1.5587680014494025 L 1.6020365608592635 -1.574017550031985 L 1.6020365608592635 -1.7505787297146969 L 1.635037537088758 -1.775478383259695 Z" fill="#209db0" transform="matrix(1,0,0,1,0,0)" fill-rule="evenodd"></path></g><g clip-path="url(#SvgjsClipPath447378996b6ee-2410-4fc2-818b-618679ec0a96)"><path d=" M 0.6201085966589179 -2.7288134438676988 L 0.6201085966589179 -2.422273689938132 L 0.5725728944366488 -2.4496752225474596 L 0.5725728944366488 -2.6917618062959554 L 0.6201085966589179 -2.7288134438676988 Z" fill="#209db0" transform="matrix(1,0,0,1,0,0)" fill-rule="evenodd"></path></g><g clip-path="url(#SvgjsClipPath447378996b6ee-2410-4fc2-818b-618679ec0a96)"><path d=" M 1.04078169076125 -2.448722125761048 L 1.04078169076125 -2.1798296948947318 L 0.9930077143423786 -2.2072312275040593 L 0.9930077143423786 -2.4219162786432276 L 1.04078169076125 -2.448722125761048 Z" fill="#209db0" transform="matrix(1,0,0,1,0,0)" fill-rule="evenodd"></path></g><g clip-path="url(#SvgjsClipPath447378996b6ee-2410-4fc2-818b-618679ec0a96)"><path d=" M 1.3699574933680871 -2.229748139083029 L 1.3699574933680871 -1.9899251602022603 L 1.331476210616727 -2.0122037975846263 L 1.331476210616727 -2.204610211341428 L 1.3699574933680871 -2.229748139083029 Z" fill="#209db0" transform="matrix(1,0,0,1,0,0)" fill-rule="evenodd"></path></g><g clip-path="url(#SvgjsClipPath447378996b6ee-2410-4fc2-818b-618679ec0a96)"><path d=" M 1.6020365608592635 -2.0310274591162516 L 1.6020365608592635 -1.8560150617114584 L 1.6347992628921562 -1.837072263081532 L 1.6347992628921562 -2.0535443706952208 L 1.6020365608592635 -2.0310274591162516 Z" fill="#209db0" transform="matrix(1,0,0,1,0,0)" fill-rule="evenodd"></path></g><g clip-path="url(#SvgjsClipPath447378996b6ee-2410-4fc2-818b-618679ec0a96)"><path d=" M 1.8524627414888593 -1.9087927962589897 L 1.8524627414888593 -1.711620898570131 L 1.8276822250421634 -1.725917350366302 L 1.8276822250421634 -1.8861567475817187 L 1.8524627414888593 -1.9087927962589897 Z" fill="#209db0" transform="matrix(1,0,0,1,0,0)" fill-rule="evenodd"></path></g><g clip-path="url(#SvgjsClipPath447378996b6ee-2410-4fc2-818b-618679ec0a96)"><path d=" M 2.0345042276934366 -1.7875112301881388 L 2.034623364791739 -1.6065419778682746 L 2.011868179016166 -1.619647058681431 L 2.011868179016166 -1.767972746066705 L 2.0345042276934366 -1.7875112301881388 Z" fill="#209db0" transform="matrix(1,0,0,1,0,0)" fill-rule="evenodd"></path></g><g clip-path="url(#SvgjsClipPath447378996b6ee-2410-4fc2-818b-618679ec0a96)"><path d=" M 0.6201085966589179 -2.334827059784886 L 0.6201085966589179 -2.028287305855319 L 0.5725728944366488 -2.0502085319427814 L 0.5725728944366488 -2.2927716640844826 L 0.6201085966589179 -2.334827059784886 Z" fill="#209db0" transform="matrix(1,0,0,1,0,0)" fill-rule="evenodd"></path></g><g clip-path="url(#SvgjsClipPath447378996b6ee-2410-4fc2-818b-618679ec0a96)"><path d=" M 0.9930077143423786 -2.0712957983421334 L 0.9930077143423786 -1.8557767875148556 L 1.04078169076125 -1.833736424329092 L 1.04078169076125 -2.1028671293920107 L 0.9930077143423786 -2.0712957983421334 Z" fill="#209db0" transform="matrix(1,0,0,1,0,0)" fill-rule="evenodd"></path></g><g clip-path="url(#SvgjsClipPath447378996b6ee-2410-4fc2-818b-618679ec0a96)"><path d=" M 1.3699574933680871 -1.9214213286789408 L 1.3701957675646903 -1.6812409385032676 L 1.331476210616727 -1.6991115032484816 L 1.331476210616727 -1.8930666992832015 L 1.3699574933680871 -1.9214213286789408 Z" fill="#209db0" transform="matrix(1,0,0,1,0,0)" fill-rule="evenodd"></path></g><g clip-path="url(#SvgjsClipPath447378996b6ee-2410-4fc2-818b-618679ec0a96)"><path d=" M 1.8524627414888593 -1.655269051073557 L 1.8527010156854615 -1.4580971533846987 L 1.8276822250421634 -1.4696534519199367 L 1.8276822250421634 -1.6316799056098747 L 1.8524627414888593 -1.655269051073557 Z" fill="#209db0" transform="matrix(1,0,0,1,0,0)" fill-rule="evenodd"></path></g><g clip-path="url(#SvgjsClipPath447378996b6ee-2410-4fc2-818b-618679ec0a96)"><path d=" M 2.034623364791739 -1.5548364772054555 L 2.034623364791739 -1.3737480877872899 L 2.011868179016166 -1.3843512895361167 L 2.011868179016166 -1.534702307592515 L 2.034623364791739 -1.5548364772054555 Z" fill="#209db0" transform="matrix(1,0,0,1,0,0)" fill-rule="evenodd"></path></g><g clip-path="url(#SvgjsClipPath447378996b6ee-2410-4fc2-818b-618679ec0a96)"><path d=" M 0.6201085966589179 -1.9407215386037715 L 0.6198703224623152 -1.6341817846742048 L 0.5725728944366488 -1.6507418413381023 L 0.5725728944366488 -1.9030742155405211 L 0.6201085966589179 -1.9407215386037715 Z" fill="#209db0" transform="matrix(1,0,0,1,0,0)" fill-rule="evenodd"></path></g><g clip-path="url(#SvgjsClipPath447378996b6ee-2410-4fc2-818b-618679ec0a96)"><path d=" M 1.04078169076125 -1.7568929959246724 L 1.0409008278595513 -1.4876431537634516 L 0.9930077143423786 -1.5043223475256517 L 0.9930077143423786 -1.7283000923323306 L 1.04078169076125 -1.7568929959246724 Z" fill="#209db0" transform="matrix(1,0,0,1,0,0)" fill-rule="evenodd"></path></g><g clip-path="url(#SvgjsClipPath447378996b6ee-2410-4fc2-818b-618679ec0a96)"><path d=" M 1.3701957675646903 -1.612975381176551 L 1.3703149046629912 -1.372914128099179 L 1.331476210616727 -1.386495757305542 L 1.331476210616727 -1.587599179238348 L 1.3701957675646903 -1.612975381176551 Z" fill="#209db0" transform="matrix(1,0,0,1,0,0)" fill-rule="evenodd"></path></g><g clip-path="url(#SvgjsClipPath447378996b6ee-2410-4fc2-818b-618679ec0a96)"><path d=" M 1.635037537088758 -1.4969358474309629 L 1.6351566741870598 -1.2804637398172733 L 1.6020365608592635 -1.2920200383525118 L 1.6020365608592635 -1.475133758441802 L 1.635037537088758 -1.4969358474309629 Z" fill="#209db0" transform="matrix(1,0,0,1,0,0)" fill-rule="evenodd"></path></g><g clip-path="url(#SvgjsClipPath447378996b6ee-2410-4fc2-818b-618679ec0a96)"><path d=" M 1.8527010156854615 -1.4018644429864258 L 1.8528201527837633 -1.2046925452975668 L 1.8276822250421634 -1.2133895534735712 L 1.8276822250421634 -1.3813728620785808 L 1.8527010156854615 -1.4018644429864258 Z" fill="#209db0" transform="matrix(1,0,0,1,0,0)" fill-rule="evenodd"></path></g><g clip-path="url(#SvgjsClipPath447378996b6ee-2410-4fc2-818b-618679ec0a96)"><path d=" M 2.034623364791739 -1.3221617242227723 L 2.034623364791739 -1.1411924719029076 L 2.011868179016166 -1.1491746574891035 L 2.011868179016166 -1.3047677078707642 L 2.034623364791739 -1.3221617242227723 Z" fill="#209db0" transform="matrix(1,0,0,1,0,0)" fill-rule="evenodd"></path></g><g clip-path="url(#SvgjsClipPath447378996b6ee-2410-4fc2-818b-618679ec0a96)"><path d=" M 2.011868179016166 -1.0678040193492295 L 2.011868179016166 -0.9139980254420901 L 2.0348616389883407 -0.9085177189202249 L 2.034623364791739 -1.0894869712400892 L 2.011868179016166 -1.0678040193492295 Z" fill="#209db0" transform="matrix(1,0,0,1,0,0)" fill-rule="evenodd"></path></g><g clip-path="url(#SvgjsClipPath447378996b6ee-2410-4fc2-818b-618679ec0a96)"><path d=" M 1.8528201527837633 -1.1483406978009927 L 1.8528201527837633 -0.9514070743087375 L 1.8276822250421634 -0.9572447921255076 L 1.8276822250421634 -1.1237984555508995 L 1.8528201527837633 -1.1483406978009927 Z" fill="#209db0" transform="matrix(1,0,0,1,0,0)" fill-rule="evenodd"></path></g><g clip-path="url(#SvgjsClipPath447378996b6ee-2410-4fc2-818b-618679ec0a96)"><path d=" M 1.6351566741870598 -1.2186315857988337 L 1.635394948383662 -1.0023977523817473 L 1.6020365608592635 -1.0102608008696419 L 1.6020365608592635 -1.1924214241725202 L 1.6351566741870598 -1.2186315857988337 Z" fill="#209db0" transform="matrix(1,0,0,1,0,0)" fill-rule="evenodd"></path></g><g clip-path="url(#SvgjsClipPath447378996b6ee-2410-4fc2-818b-618679ec0a96)"><path d=" M 1.3703149046629912 -1.0644681805967906 L 1.331476210616727 -1.073641737166 L 1.331476210616727 -1.2746260220005041 L 1.3703149046629912 -1.3041720223792566 L 1.3703149046629912 -1.0644681805967906 Z" fill="#209db0" transform="matrix(1,0,0,1,0,0)" fill-rule="evenodd"></path></g><g clip-path="url(#SvgjsClipPath447378996b6ee-2410-4fc2-818b-618679ec0a96)"><path d=" M 1.0409008278595513 -1.4105614511624296 L 0.9930077143423786 -1.3774413378346337 L 0.9930077143423786 -1.1529870446347488 L 1.0409008278595513 -1.1417881573944149 L 1.0409008278595513 -1.4105614511624296 Z" fill="#209db0" transform="matrix(1,0,0,1,0,0)" fill-rule="evenodd"></path></g><g clip-path="url(#SvgjsClipPath447378996b6ee-2410-4fc2-818b-618679ec0a96)"><path d=" M 0.6198703224623152 -1.5463777432260548 L 0.6198703224623152 -1.2404336747879947 L 0.5725728944366488 -1.2515134249300273 L 0.5725728944366488 -1.5052754443120626 L 0.6198703224623152 -1.5463777432260548 Z" fill="#209db0" transform="matrix(1,0,0,1,0,0)" fill-rule="evenodd"></path></g><g clip-path="url(#SvgjsClipPath447378996b6ee-2410-4fc2-818b-618679ec0a96)"><path d=" M 0 -3.3840674845255365 C -0.6093862578117895 -2.9437367692034693 -1.061034997472492 -2.617539394054168 -1.409153598709256 -2.366279253736462 C -1.6850751183753565 -2.166962888278178 -1.9098868228701458 -2.0045790232933354 -2.096932067203383 -1.8695966909178208 L -2.096932067203383 -0.39575164783089134 C -2.096932067203383 -0.39575164783089134 0 -0.4531757292121781 0 -0.4531757292121781 L 0 -1.9151070624689652 C 0 -2.404403125192918 0 -2.8940565992117753 0 -3.3840674845255365 Z" fill="#f05a28" transform="matrix(1,0,0,1,0,0)" fill-rule="evenodd"></path></g><g clip-path="url(#SvgjsClipPath447378996b6ee-2410-4fc2-818b-618679ec0a96)"><path d=" M -0.37861769840192916 -1.1919448757793143 C -0.38326404523568436 -1.1923022870742193 -0.38802952916774136 -1.1924214241725202 -0.392675876001497 -1.1924214241725202 C -0.5181272405128978 -1.1924214241725202 -0.6198703224623148 -1.056724269207197 -0.6198703224623148 -0.8950552268121634 L -0.6198703224623148 -0.43625826125337497 C -0.6198703224623148 -0.43625826125337497 -0.572572894436649 -0.43756876933469124 -0.572572894436649 -0.43756876933469124 L -0.572572894436649 -0.8950552268121634 C -0.572572894436649 -1.051005688488729 -0.486794183659623 -1.182652182111804 -0.37861769840192916 -1.1919448757793143 Z" fill="#125b67" transform="matrix(1,0,0,1,0,0)" fill-rule="evenodd"></path></g><g clip-path="url(#SvgjsClipPath447378996b6ee-2410-4fc2-818b-618679ec0a96)"><path d=" M -0.6959989282769252 -0.43423293058225143 L -0.6959989282769252 -0.904586194676277 C -0.6959989282769252 -1.0054953169375844 -0.7731997679762488 -1.0985413907109978 -0.8685094466173888 -1.0985413907109978 C -0.9636999881602275 -1.0985413907109978 -1.0410199649578524 -0.9956069377785663 -1.0410199649578524 -0.872776589429797 L -1.0410199649578524 -0.4248210998164388 C -1.0410199649578524 -0.4248210998164388 -0.6961180653752268 -0.43423293058225143 -0.6961180653752268 -0.43423293058225143 Z" fill="#125b67" transform="matrix(1,0,0,1,0,0)" fill-rule="evenodd"></path></g><g clip-path="url(#SvgjsClipPath447378996b6ee-2410-4fc2-818b-618679ec0a96)"><path d=" M -1.099754554420455 -0.4232723175385198 L -1.099754554420455 -0.8687259280875481 C -1.099754554420455 -0.9478329613596945 -1.1603953374558804 -1.02098313971677 -1.235094298090874 -1.02098313971677 C -1.3097932587258674 -1.02098313971677 -1.3704340417612928 -0.9402081870684036 -1.3704340417612928 -0.8438262745425504 L -1.3704340417612928 -0.4160049545421334 C -1.3704340417612928 -0.4160049545421334 -1.099754554420455 -0.4233914546368216 -1.099754554420455 -0.4233914546368216 Z" fill="#125b67" transform="matrix(1,0,0,1,0,0)" fill-rule="evenodd"></path></g><g clip-path="url(#SvgjsClipPath447378996b6ee-2410-4fc2-818b-618679ec0a96)"><path d=" M -1.4171357842954515 -0.41445617226421483 L -1.4171357842954515 -0.8385842422172876 C -1.4171357842954515 -0.9024417269068525 -1.4659819945990358 -0.961295453467756 -1.526265366339557 -0.961295453467756 C -1.5865487380800778 -0.961295453467756 -1.635394948383662 -0.8961274606968765 -1.635394948383662 -0.8184500726043473 L -1.635394948383662 -0.40838018025084155 C -1.635394948383662 -0.40838018025084155 -1.4171357842954513 -0.414337035165913 -1.4171357842954513 -0.414337035165913 Z" fill="#125b67" transform="matrix(1,0,0,1,0,0)" fill-rule="evenodd"></path></g><g clip-path="url(#SvgjsClipPath447378996b6ee-2410-4fc2-818b-618679ec0a96)"><path d=" M -1.673399682741817 -0.4074270834644307 L -1.673399682741817 -0.8147568225570034 C -1.673399682741817 -0.8672962829079314 -1.7135488848693972 -0.91566594481831 -1.76310991776279 -0.91566594481831 C -1.8126709506561829 -0.91566594481831 -1.852820152783763 -0.8620542505826689 -1.852820152783763 -0.7981967658931048 L -1.852820152783763 -0.40254246243407144 C -1.852820152783763 -0.40254246243407144 -1.6732805456435156 -0.40742708346443024 -1.6732805456435156 -0.40742708346443024 Z" fill="#125b67" transform="matrix(1,0,0,1,0,0)" fill-rule="evenodd"></path></g><g clip-path="url(#SvgjsClipPath447378996b6ee-2410-4fc2-818b-618679ec0a96)"><path d=" M -1.8845106209319422 -0.40158936564766057 L -1.8845106209319422 -0.7896188948154017 C -1.8845106209319422 -0.8335804840886283 -1.9182264197512455 -0.8742062346094137 -1.9596861299601414 -0.8742062346094137 C -2.001145840169037 -0.8742062346094137 -2.0348616389883407 -0.8292915485497763 -2.0348616389883407 -0.7757989914124366 L -2.0348616389883407 -0.3975387043054117 C -2.0348616389883407 -0.3975387043054117 -1.8845106209319422 -0.4017085027459619 -1.8845106209319422 -0.4017085027459619 Z" fill="#125b67" transform="matrix(1,0,0,1,0,0)" fill-rule="evenodd"></path></g><g clip-path="url(#SvgjsClipPath447378996b6ee-2410-4fc2-818b-618679ec0a96)"><path d=" M -0.16035853431371816 -0.44888679367332607 L -0.16035853431371816 -0.9369914854142647 C -0.16035853431371816 -1.069829350020354 -0.25268978549732246 -1.1925405612708215 -0.3664657143751835 -1.1925405612708215 C -0.4803607803513459 -1.1925405612708215 -0.5725728944366488 -1.056843406305498 -0.5725728944366488 -0.8951743639104648 L -0.5725728944366488 -0.4376879064329926 C -0.5725728944366488 -0.4376879064329926 -0.16023939721541658 -0.44888679367332607 -0.16023939721541658 -0.44888679367332607 Z" fill="#d0ecf2" transform="matrix(1,0,0,1,0,0)" fill-rule="evenodd"></path></g><g clip-path="url(#SvgjsClipPath447378996b6ee-2410-4fc2-818b-618679ec0a96)"><path d=" M -0.8439672043672952 -1.0965160600398733 C -0.9281971328664029 -1.081385648555592 -0.9931268514406795 -0.9854802844229451 -0.9931268514406795 -0.8728957265280979 L -0.9931268514406795 -0.4261316078977546 C -0.9931268514406795 -0.4261316078977546 -0.6961180653752266 -0.43435206768055235 -0.6961180653752266 -0.43435206768055235 L -0.6961180653752266 -0.9047053317745788 C -0.6961180653752266 -0.9967983087615799 -0.7604520984579963 -1.0823387453420037 -0.8439672043672952 -1.0966351971381747 Z" fill="#d0ecf2" transform="matrix(1,0,0,1,0,0)" fill-rule="evenodd"></path></g><g clip-path="url(#SvgjsClipPath447378996b6ee-2410-4fc2-818b-618679ec0a96)"><path d=" M -1.099754554420455 -0.4232723175385198 L -1.099754554420455 -0.8687259280875481 C -1.099754554420455 -0.940684735461609 -1.1499112728053549 -1.0076397847070098 -1.2150792655762344 -1.0191960832422486 C -1.2808429438386209 -1.0069249621172016 -1.3314762106167266 -0.9318685901873032 -1.3314762106167266 -0.8438262745425504 L -1.3314762106167266 -0.41683891423024333 C -1.3314762106167266 -0.41683891423024333 -1.0996354173221534 -0.4232723175385198 -1.0996354173221534 -0.4232723175385198 Z" fill="#d0ecf2" transform="matrix(1,0,0,1,0,0)" fill-rule="evenodd"></path></g><g clip-path="url(#SvgjsClipPath447378996b6ee-2410-4fc2-818b-618679ec0a96)"><path d=" M -1.4171357842954515 -0.41445617226421483 L -1.4171357842954515 -0.8385842422172876 C -1.4171357842954515 -0.8962465977951775 -1.457046712226429 -0.949858292030819 -1.5091096241841515 -0.9597466711898375 C -1.56164908453508 -0.9492626065393122 -1.6019174237609617 -0.8890983718970924 -1.6019174237609617 -0.8184500726043464 L -1.6019174237609617 -0.40933327703725286 C -1.6019174237609617 -0.40933327703725286 -1.41701664719715 -0.41433703516591214 -1.41701664719715 -0.41433703516591214 Z" fill="#d0ecf2" transform="matrix(1,0,0,1,0,0)" fill-rule="evenodd"></path></g><g clip-path="url(#SvgjsClipPath447378996b6ee-2410-4fc2-818b-618679ec0a96)"><path d=" M -1.673399682741817 -0.4074270834644307 L -1.673399682741817 -0.8147568225570034 C -1.673399682741817 -0.8626499360741757 -1.7067580702662157 -0.9070880737406073 -1.750243111146236 -0.9145937109335973 C -1.793966426222859 -0.9066115253474014 -1.8278013621404638 -0.8568122182574065 -1.8278013621404638 -0.7981967658931048 L -1.8278013621404638 -0.4032572850238805 C -1.8278013621404638 -0.4032572850238805 -1.673399682741817 -0.40742708346443024 -1.673399682741817 -0.40742708346443024 Z" fill="#d0ecf2" transform="matrix(1,0,0,1,0,0)" fill-rule="evenodd"></path></g><g clip-path="url(#SvgjsClipPath447378996b6ee-2410-4fc2-818b-618679ec0a96)"><path d=" M -1.8845106209319422 -0.40158936564766057 L -1.8845106209319422 -0.7896188948154017 C -1.8845106209319422 -0.8292915485497772 -1.9120312906395713 -0.8662240490232187 -1.9478915572283002 -0.8730148636263997 C -1.9841092351119336 -0.8657475006300128 -2.0118681790161657 -0.824287790421117 -2.0118681790161657 -0.7756798543141357 L -2.0118681790161657 -0.3980152526986176 C -2.0118681790161657 -0.3980152526986176 -1.8846297580302436 -0.40147022854935965 -1.8846297580302436 -0.40147022854935965 Z" fill="#d0ecf2" transform="matrix(1,0,0,1,0,0)" fill-rule="evenodd"></path></g><g clip-path="url(#SvgjsClipPath447378996b6ee-2410-4fc2-818b-618679ec0a96)"><path d=" M -0.16571970373728218 -3.0311833993567157 C -0.3303671735898517 -2.921696406017706 -0.4810756029411545 -2.8212638321496044 -0.6201085966589175 -2.7288134438676988 C -0.6201085966589175 -2.626593813525076 -0.6201085966589175 -2.5242550460841517 -0.6201085966589175 -2.422273689938132 C -0.4810756029411545 -2.5024529570949907 -0.3303671735898517 -2.5894230388550312 -0.16571970373728218 -2.6842561691029654 C -0.16571970373728218 -2.7997000173570465 -0.16571970373728218 -2.91538213980773 -0.16571970373728218 -3.031064262258414 Z" fill="#d0ecf2" transform="matrix(1,0,0,1,0,0)" fill-rule="evenodd"></path></g><g clip-path="url(#SvgjsClipPath447378996b6ee-2410-4fc2-818b-618679ec0a96)"><path d=" M -0.6959989282769252 -2.6782993141878944 C -0.8195440992155032 -2.596094716359911 -0.9340348506831728 -2.5197278363486975 -1.0407816907612495 -2.448722125761048 C -1.0407816907612495 -2.3591310278383766 -1.0407816907612495 -2.269063381522499 -1.0407816907612495 -2.1797105577964304 C -0.9340348506831726 -2.2411853005199656 -0.8195440992155032 -2.307187252978955 -0.6959989282769252 -2.3784312377632073 C -0.6959989282769252 -2.4781489890415003 -0.6959989282769252 -2.5782241516146973 -0.6959989282769252 -2.678180177089593 Z" fill="#d0ecf2" transform="matrix(1,0,0,1,0,0)" fill-rule="evenodd"></path></g><g clip-path="url(#SvgjsClipPath447378996b6ee-2410-4fc2-818b-618679ec0a96)"><path d=" M -1.099516280223852 -2.4097642946164823 C -1.1955407814548007 -2.345787672828617 -1.2854892906723767 -2.2859808494813016 -1.3700766304663885 -2.229748139083029 C -1.3700766304663885 -2.149926283221074 -1.3700766304663885 -2.069627878965914 -1.3700766304663885 -1.9899251602022603 C -1.2857275648689797 -2.038652233407543 -1.1957790556514034 -2.090476871168663 -1.099516280223852 -2.145875621878826 C -1.099516280223852 -2.2335605262286746 -1.099516280223852 -2.3218411160700305 -1.099516280223852 -2.409645157518181 Z" fill="#d0ecf2" transform="matrix(1,0,0,1,0,0)" fill-rule="evenodd"></path></g><g clip-path="url(#SvgjsClipPath447378996b6ee-2410-4fc2-818b-618679ec0a96)"><path d=" M -1.4167783730005472 -2.198653356426357 C -1.4937409385032678 -2.147424404156744 -1.5662954313688355 -2.099173879344667 -1.6349183999904566 -2.0535443706952208 C -1.6349183999904566 -1.9813472891245574 -1.6349183999904566 -1.9091502075538938 -1.6349183999904566 -1.8370722630815315 C -1.5665337055654385 -1.8766257797176045 -1.4937409385032678 -1.9184429012214048 -1.4167783730005472 -1.9627619017895348 C -1.4167783730005472 -2.0412732495701738 -1.4167783730005472 -2.1199037344491147 -1.4167783730005472 -2.1985342193280553 Z" fill="#d0ecf2" transform="matrix(1,0,0,1,0,0)" fill-rule="evenodd"></path></g><g clip-path="url(#SvgjsClipPath447378996b6ee-2410-4fc2-818b-618679ec0a96)"><path d=" M -1.6730422714469126 -2.0281681687570177 C -1.735946659350065 -1.986231910154916 -1.7957534826973804 -1.9464401193222398 -1.8525818785871602 -1.908673659160688 C -1.8525818785871602 -1.8429099808983014 -1.8525818785871602 -1.776908028439312 -1.8525818785871602 -1.7115017614718295 C -1.7959917568939834 -1.7442644635047215 -1.736184933546668 -1.778695084913833 -1.6730422714469126 -1.815031899895768 C -1.6730422714469126 -1.8859184733851158 -1.6730422714469126 -1.9570433210710667 -1.6730422714469126 -2.028168168757017 Z" fill="#d0ecf2" transform="matrix(1,0,0,1,0,0)" fill-rule="evenodd"></path></g><g clip-path="url(#SvgjsClipPath447378996b6ee-2410-4fc2-818b-618679ec0a96)"><path d=" M -1.884153209637038 -1.8877055298596375 C -1.936573532889665 -1.8526792229590185 -1.9867302512745648 -1.8193208354346193 -2.034504227693436 -1.7875112301881388 C -2.034504227693436 -1.7271087213493166 -2.034504227693436 -1.6665870754121928 -2.0347425018900394 -1.6065419778682746 C -1.9869685254711678 -1.634062647575904 -1.9368118070862677 -1.6630129624631498 -1.884153209637038 -1.6932737854317121 C -1.884153209637038 -1.7578460927110842 -1.884153209637038 -1.822775811285361 -1.884153209637038 -1.887586392761336 Z" fill="#d0ecf2" transform="matrix(1,0,0,1,0,0)" fill-rule="evenodd"></path></g><g clip-path="url(#SvgjsClipPath447378996b6ee-2410-4fc2-818b-618679ec0a96)"><path d=" M -0.16571970373728218 -2.5852532404144815 C -0.33012889939324896 -2.4945899086070966 -0.4810756029411545 -2.411313076894401 -0.6201085966589175 -2.3347079226865843 C -0.6201085966589175 -2.2324882923439615 -0.6201085966589175 -2.1301495249030378 -0.6201085966589175 -2.0281681687570177 C -0.4810756029411545 -2.092502201839787 -0.33012889939324896 -2.162197404346121 -0.16548142954067924 -2.2383260101607316 C -0.16571970373728218 -2.3537698584148123 -0.16571970373728218 -2.4694519808654958 -0.16571970373728218 -2.5851341033161797 Z" fill="#d0ecf2" transform="matrix(1,0,0,1,0,0)" fill-rule="evenodd"></path></g><g clip-path="url(#SvgjsClipPath447378996b6ee-2410-4fc2-818b-618679ec0a96)"><path d=" M -0.6959989282769252 -2.292890801182784 C -0.8195440992155032 -2.2248635180526706 -0.9340348506831728 -2.1616017188546137 -1.0407816907612495 -2.1028671293920107 C -1.0407816907612495 -2.0130377572727367 -1.0407816907612495 -1.923208385153462 -1.0407816907612495 -1.833736424329092 C -0.9342731248797755 -1.8830591830258818 -0.8195440992155032 -1.936075191770016 -0.6959989282769252 -1.9931418618563985 C -0.6959989282769252 -2.0928596131346913 -0.6959989282769252 -2.1929347757078883 -0.6959989282769252 -2.292890801182784 Z" fill="#d0ecf2" transform="matrix(1,0,0,1,0,0)" fill-rule="evenodd"></path></g><g clip-path="url(#SvgjsClipPath447378996b6ee-2410-4fc2-818b-618679ec0a96)"><path d=" M -1.099516280223852 -2.070580975752325 C -1.1957790556514034 -2.017564967008191 -1.2857275648689797 -1.968003934114798 -1.3700766304663885 -1.9214213286789408 C -1.3703149046629914 -1.8413611986203828 -1.3703149046629914 -1.7610627943652226 -1.3703149046629914 -1.6812409385032676 C -1.285846701967281 -1.720317906746135 -1.195898192749705 -1.7618967540533326 -1.0996354173221534 -1.806573165916367 C -1.0996354173221534 -1.8943772073645173 -1.0996354173221534 -1.9824195230092705 -1.0996354173221534 -2.070580975752325 Z" fill="#d0ecf2" transform="matrix(1,0,0,1,0,0)" fill-rule="evenodd"></path></g><g clip-path="url(#SvgjsClipPath447378996b6ee-2410-4fc2-818b-618679ec0a96)"><path d=" M -1.4168975100988486 -1.8956877154458327 C -1.4938600756015692 -1.8532749084505253 -1.5664145684671371 -1.813244843421247 -1.635037537088758 -1.775478383259695 C -1.635037537088758 -1.7030430274924284 -1.635037537088758 -1.6308459459217648 -1.635037537088758 -1.5588871385477043 C -1.5664145684671373 -1.5905776066958832 -1.4939792126998706 -1.624174268416885 -1.4168975100988486 -1.6596771237107097 C -1.4168975100988486 -1.7381884714913487 -1.4168975100988486 -1.8170572305668924 -1.4168975100988486 -1.8956877154458327 Z" fill="#d0ecf2" transform="matrix(1,0,0,1,0,0)" fill-rule="evenodd"></path></g><g clip-path="url(#SvgjsClipPath447378996b6ee-2410-4fc2-818b-618679ec0a96)"><path d=" M -1.6730422714469126 -1.7543911168603428 C -1.736184933546668 -1.7196030841563268 -1.795872619795682 -1.686721245025133 -1.8525818785871602 -1.655269051073557 C -1.852820152783763 -1.5895053728111705 -1.852820152783763 -1.523741694548784 -1.852820152783763 -1.4580971533846987 C -1.7959917568939834 -1.4843073150110115 -1.7364232077432709 -1.5119471218169427 -1.6732805456435154 -1.5411357109007915 C -1.6732805456435154 -1.6120222843901393 -1.6732805456435154 -1.6831471320760902 -1.6730422714469126 -1.7543911168603428 Z" fill="#d0ecf2" transform="matrix(1,0,0,1,0,0)" fill-rule="evenodd"></path></g><g clip-path="url(#SvgjsClipPath447378996b6ee-2410-4fc2-818b-618679ec0a96)"><path d=" M -1.884153209637038 -1.6377558976232471 C -1.9368118070862677 -1.6088055827360013 -1.9868493883728664 -1.5811657759300701 -2.0347425018900394 -1.5548364772054555 C -2.0347425018900394 -1.4944339683666328 -2.0347425018900394 -1.433912322429509 -2.0347425018900394 -1.3737480877872899 C -1.9869685254711678 -1.3959075880713545 -1.9370500812828706 -1.419139322240132 -1.8843914838336409 -1.443562427391925 C -1.8843914838336409 -1.5082538717695986 -1.8843914838336409 -1.5730644532455742 -1.884153209637038 -1.637875034721549 Z" fill="#d0ecf2" transform="matrix(1,0,0,1,0,0)" fill-rule="evenodd"></path></g><g clip-path="url(#SvgjsClipPath447378996b6ee-2410-4fc2-818b-618679ec0a96)"><path d=" M -0.16548142954067924 -2.139323081472247 C -0.3301288993932485 -2.0673642740981863 -0.4810756029411545 -2.001362321639197 -0.6201085966589175 -1.9407215386037715 C -0.6201085966589175 -1.838263634064546 -0.6198703224623148 -1.7361631408202247 -0.6198703224623148 -1.6341817846742048 C -0.4810756029411545 -1.6825514465845832 -0.3301288993932485 -1.7352100440338132 -0.16548142954067924 -1.7925149883167988 C -0.16548142954067924 -1.9079588365708795 -0.16548142954067924 -2.02340268482496 -0.16548142954067924 -2.139323081472247 Z" fill="#d0ecf2" transform="matrix(1,0,0,1,0,0)" fill-rule="evenodd"></path></g><g clip-path="url(#SvgjsClipPath447378996b6ee-2410-4fc2-818b-618679ec0a96)"><path d=" M -0.6959989282769252 -1.9074822881776738 C -0.8195440992155032 -1.8535131826471285 -0.934153987781474 -1.8033564642622282 -1.0407816907612495 -1.7567738588263713 C -1.0407816907612495 -1.6667062125104937 -1.0410199649578522 -1.5771151145878222 -1.0410199649578522 -1.4876431537634516 C -0.9342731248797755 -1.524813928433497 -0.819544099215503 -1.5647248563644738 -0.6961180653752266 -1.6077333488512884 C -0.6961180653752266 -1.7074511001295813 -0.6961180653752266 -1.8072879885061754 -0.6961180653752266 -1.9074822881776738 Z" fill="#d0ecf2" transform="matrix(1,0,0,1,0,0)" fill-rule="evenodd"></path></g><g clip-path="url(#SvgjsClipPath447378996b6ee-2410-4fc2-818b-618679ec0a96)"><path d=" M -1.099754554420455 -1.7311593826915648 C -1.1957790556514034 -1.6891039869911615 -1.2857275648689797 -1.6497887445516914 -1.3701957675646899 -1.6128562440782492 C -1.3701957675646899 -1.5325578398230888 -1.3701957675646899 -1.4527359839611345 -1.3704340417612928 -1.372914128099179 C -1.2859658390655824 -1.4023409913796316 -1.1960173298480066 -1.433674048232906 -1.0997545544204552 -1.4671515728556064 C -1.0997545544204552 -1.5549556143037573 -1.0997545544204552 -1.6428787928502087 -1.0997545544204552 -1.7311593826915648 Z" fill="#d0ecf2" transform="matrix(1,0,0,1,0,0)" fill-rule="evenodd"></path></g><g clip-path="url(#SvgjsClipPath447378996b6ee-2410-4fc2-818b-618679ec0a96)"><path d=" M -1.4168975100988486 -1.592245526072103 C -1.4938600756015692 -1.5586488643511014 -1.56665284266374 -1.5268392591046205 -1.635037537088758 -1.4969358474309629 C -1.635275811285361 -1.4247387658602995 -1.635275811285361 -1.352541684289636 -1.635275811285361 -1.2804637398172733 C -1.56665284266374 -1.3044102965758606 -1.4942174868964737 -1.3296673614157624 -1.4171357842954517 -1.3564732085335827 C -1.4171357842954517 -1.4349845563142223 -1.4171357842954517 -1.5136150411931621 -1.4168975100988488 -1.592245526072103 Z" fill="#d0ecf2" transform="matrix(1,0,0,1,0,0)" fill-rule="evenodd"></path></g><g clip-path="url(#SvgjsClipPath447378996b6ee-2410-4fc2-818b-618679ec0a96)"><path d=" M -1.673161408545214 -1.4802566536687636 C -1.7363040706449693 -1.4527359839611345 -1.7959917568939834 -1.4266449594331219 -1.8527010156854615 -1.401745305888124 C -1.8527010156854615 -1.3359816276257375 -1.8527010156854615 -1.2702179493633512 -1.8529392898820645 -1.2045734081992658 C -1.7961108939922847 -1.2243501665173024 -1.7363040706449693 -1.2451991587200513 -1.673399682741817 -1.267120384807514 C -1.673399682741817 -1.3380069582968614 -1.673161408545214 -1.409131805982812 -1.673161408545214 -1.4802566536687636 Z" fill="#d0ecf2" transform="matrix(1,0,0,1,0,0)" fill-rule="evenodd"></path></g><g clip-path="url(#SvgjsClipPath447378996b6ee-2410-4fc2-818b-618679ec0a96)"><path d=" M -1.8843914838336406 -1.3879254024851588 C -1.9370500812828706 -1.3649319425129836 -1.9869685254711678 -1.3430107164255216 -2.0347425018900394 -1.3221617242227723 C -2.0347425018900394 -1.2617592153839499 -2.0347425018900394 -1.2014758436434287 -2.0347425018900394 -1.1411924719029076 C -1.9870876625694691 -1.1578716656651071 -1.9370500812828706 -1.1752656820171152 -1.8846297580302436 -1.193612795155535 C -1.8843914838336406 -1.2583042395332087 -1.8843914838336406 -1.3231148210091832 -1.8843914838336406 -1.3879254024851588 Z" fill="#d0ecf2" transform="matrix(1,0,0,1,0,0)" fill-rule="evenodd"></path></g><g clip-path="url(#SvgjsClipPath447378996b6ee-2410-4fc2-818b-618679ec0a96)"><path d=" M -0.16548142954067924 -1.6935120596283142 C -0.3301288993932485 -1.6403769137858784 -0.4810756029411545 -1.591530703482294 -0.6198703224623148 -1.546496880324356 C -0.6198703224623148 -1.4445155241783358 -0.6198703224623148 -1.3425341680323157 -0.6198703224623148 -1.2404336747879947 C -0.4808373287445513 -1.2729581026242833 -0.3301288993932485 -1.3083418208198068 -0.16548142954067924 -1.3469422406694687 C -0.16548142954067924 -1.4623860889235496 -0.16548142954067924 -1.577829937177631 -0.16548142954067924 -1.6935120596283142 Z" fill="#d0ecf2" transform="matrix(1,0,0,1,0,0)" fill-rule="evenodd"></path></g><g clip-path="url(#SvgjsClipPath447378996b6ee-2410-4fc2-818b-618679ec0a96)"><path d=" M -0.6959989282769252 -1.5218355009759608 C -0.8195440992155032 -1.4819245730449833 -0.934153987781474 -1.4449920725715417 -1.040900827859551 -1.4105614511624296 C -1.040900827859551 -1.3209703532397579 -1.040900827859551 -1.2313792553170861 -1.040900827859551 -1.1417881573944149 C -0.9341539877814742 -1.166806948037714 -0.8194249621172016 -1.193612795155535 -0.6959989282769252 -1.2225631100427807 L -0.6959989282769252 -1.5218355009759608 Z" fill="#d0ecf2" transform="matrix(1,0,0,1,0,0)" fill-rule="evenodd"></path></g><g clip-path="url(#SvgjsClipPath447378996b6ee-2410-4fc2-818b-618679ec0a96)"><path d=" M -1.099754554420455 -1.391618652532503 C -1.1960173298480066 -1.3606430069741324 -1.2859658390655824 -1.331573554988585 -1.3704340417612928 -1.3042911594775584 C -1.3704340417612928 -1.2244693036156034 -1.3704340417612928 -1.144409173557046 -1.3704340417612928 -1.0644681805967897 C -1.2860849761638837 -1.0842449389148263 -1.1960173298480066 -1.105570479510781 -1.099754554420455 -1.1280873910897506 C -1.099754554420455 -1.2158914325379007 -1.099754554420455 -1.303814611084353 -1.099754554420455 -1.391618652532503 Z" fill="#d0ecf2" transform="matrix(1,0,0,1,0,0)" fill-rule="evenodd"></path></g><g clip-path="url(#SvgjsClipPath447378996b6ee-2410-4fc2-818b-618679ec0a96)"><path d=" M -1.4171357842954515 -1.2891607479932778 C -1.494098349798172 -1.2642610944482797 -1.56665284266374 -1.2407910860828988 -1.6352758112853607 -1.218750722897136 C -1.6352758112853607 -1.1465536413264714 -1.6355140854819639 -1.0744756968541096 -1.6355140854819639 -1.0025168894800491 C -1.5668911168603428 -1.018600397750741 -1.494336623994775 -1.035637002807845 -1.4173740584920544 -1.0536267046513599 C -1.4173740584920544 -1.1321380524319995 -1.4171357842954515 -1.2106494002126382 -1.4171357842954515 -1.2892798850915788 Z" fill="#d0ecf2" transform="matrix(1,0,0,1,0,0)" fill-rule="evenodd"></path></g><g clip-path="url(#SvgjsClipPath447378996b6ee-2410-4fc2-818b-618679ec0a96)"><path d=" M -1.673399682741817 -1.206360464673787 C -1.7365423448415722 -1.1859880208642433 -1.7961108939922847 -1.1666878109394125 -1.8529392898820645 -1.1483406978009927 C -1.8529392898820645 -1.0825770195386064 -1.8529392898820645 -1.016932478374521 -1.8529392898820645 -0.9514070743087375 C -1.7963491681888877 -0.9647504293184967 -1.7365423448415722 -0.9786894698197641 -1.6736379569384197 -0.9934624700091406 C -1.6733996827418167 -1.0643490434984888 -1.6733996827418167 -1.1352356169878366 -1.6733996827418167 -1.206360464673787 Z" fill="#d0ecf2" transform="matrix(1,0,0,1,0,0)" fill-rule="evenodd"></path></g><g clip-path="url(#SvgjsClipPath447378996b6ee-2410-4fc2-818b-618679ec0a96)"><path d=" M -1.8845106209319422 -1.1380949073470705 C -1.9369309441845692 -1.1210583022899665 -1.9870876625694691 -1.1048556569209733 -2.034623364791738 -1.0894869712400888 C -2.034623364791738 -1.0290844624012667 -2.034623364791738 -0.9688010906607456 -2.0348616389883407 -0.908517718920224 C -1.9870876625694691 -0.919716606160558 -1.937169218381172 -0.9316303159907005 -1.8845106209319422 -0.9439014371157479 C -1.8845106209319422 -1.0085928814934215 -1.8845106209319422 -1.0732843258710951 -1.8845106209319422 -1.1380949073470705 Z" fill="#d0ecf2" transform="matrix(1,0,0,1,0,0)" fill-rule="evenodd"></path></g><g clip-path="url(#SvgjsClipPath447378996b6ee-2410-4fc2-818b-618679ec0a96)"><path d=" M -0.16571970373728218 -2.9530294628709806 L -0.16571970373728218 -3.0311833993567157 L -0.6201085966589175 -2.7288134438676988 L -0.5726920315349504 -2.6917618062959554 L -0.16571970373728218 -2.9530294628709806 Z" fill="#209db0" transform="matrix(1,0,0,1,0,0)" fill-rule="evenodd"></path></g><g clip-path="url(#SvgjsClipPath447378996b6ee-2410-4fc2-818b-618679ec0a96)"><path d=" M -0.6959989282769252 -2.6782993141878944 L -1.0407816907612495 -2.448722125761048 L -0.9931268514406795 -2.4219162786432276 L -0.6959989282769252 -2.6125356359255076 L -0.6959989282769252 -2.6782993141878944 Z" fill="#209db0" transform="matrix(1,0,0,1,0,0)" fill-rule="evenodd"></path></g><g clip-path="url(#SvgjsClipPath447378996b6ee-2410-4fc2-818b-618679ec0a96)"><path d=" M -1.099516280223852 -2.4097642946164823 L -1.3699574933680871 -2.229748139083029 L -1.3314762106167268 -2.204610211341428 L -1.099516280223852 -2.353650721316511 L -1.099516280223852 -2.4097642946164823 Z" fill="#209db0" transform="matrix(1,0,0,1,0,0)" fill-rule="evenodd"></path></g><g clip-path="url(#SvgjsClipPath447378996b6ee-2410-4fc2-818b-618679ec0a96)"><path d=" M -1.4167783730005472 -2.198653356426357 L -1.634799262892155 -2.0535443706952208 L -1.6020365608592633 -2.0310274591162516 L -1.4167783730005472 -2.149926283221074 L -1.4167783730005472 -2.198653356426357 Z" fill="#209db0" transform="matrix(1,0,0,1,0,0)" fill-rule="evenodd"></path></g><g clip-path="url(#SvgjsClipPath447378996b6ee-2410-4fc2-818b-618679ec0a96)"><path d=" M -1.6730422714469126 -2.0281681687570177 L -1.8524627414888588 -1.9087927962589897 L -1.8278013621404638 -1.8861567475817187 L -1.6730422714469126 -1.9855170875651076 L -1.6730422714469126 -2.0281681687570177 Z" fill="#209db0" transform="matrix(1,0,0,1,0,0)" fill-rule="evenodd"></path></g><g clip-path="url(#SvgjsClipPath447378996b6ee-2410-4fc2-818b-618679ec0a96)"><path d=" M -1.884153209637038 -1.8877055298596375 L -2.034504227693436 -1.7875112301881388 L -2.0118681790161657 -1.767972746066705 L -1.884153209637038 -1.8499390696980855 L -1.884153209637038 -1.8877055298596375 Z" fill="#209db0" transform="matrix(1,0,0,1,0,0)" fill-rule="evenodd"></path></g><g clip-path="url(#SvgjsClipPath447378996b6ee-2410-4fc2-818b-618679ec0a96)"><path d=" M -0.16571970373728218 -2.5852532404144815 L -0.6201085966589175 -2.334827059784886 L -0.5726920315349504 -2.2927716640844826 L -0.16571970373728218 -2.5072184410270477 L -0.16571970373728218 -2.5852532404144815 Z" fill="#209db0" transform="matrix(1,0,0,1,0,0)" fill-rule="evenodd"></path></g><g clip-path="url(#SvgjsClipPath447378996b6ee-2410-4fc2-818b-618679ec0a96)"><path d=" M -0.6959989282769252 -2.292890801182784 L -1.0407816907612495 -2.1028671293920107 L -0.9931268514406795 -2.0712957983421334 L -0.6959989282769252 -2.227841945510206 L -0.6959989282769252 -2.292890801182784 Z" fill="#209db0" transform="matrix(1,0,0,1,0,0)" fill-rule="evenodd"></path></g><g clip-path="url(#SvgjsClipPath447378996b6ee-2410-4fc2-818b-618679ec0a96)"><path d=" M -1.099516280223852 -2.070580975752325 L -1.3699574933680871 -1.9214213286789408 L -1.3314762106167268 -1.8930666992832015 L -1.099516280223852 -2.0153013621404634 L -1.099516280223852 -2.070580975752325 Z" fill="#209db0" transform="matrix(1,0,0,1,0,0)" fill-rule="evenodd"></path></g><g clip-path="url(#SvgjsClipPath447378996b6ee-2410-4fc2-818b-618679ec0a96)"><path d=" M -1.4168975100988486 -1.8956877154458327 L -1.635037537088758 -1.775478383259695 L -1.6020365608592633 -1.7505787297146969 L -1.4168975100988486 -1.8480328761252627 L -1.4168975100988486 -1.8956877154458327 Z" fill="#209db0" transform="matrix(1,0,0,1,0,0)" fill-rule="evenodd"></path></g><g clip-path="url(#SvgjsClipPath447378996b6ee-2410-4fc2-818b-618679ec0a96)"><path d=" M -1.6730422714469126 -1.7543911168603428 L -1.8524627414888588 -1.655269051073557 L -1.8278013621404638 -1.6316799056098747 L -1.6730422714469126 -1.7131696808480497 L -1.6730422714469126 -1.7543911168603428 Z" fill="#209db0" transform="matrix(1,0,0,1,0,0)" fill-rule="evenodd"></path></g><g clip-path="url(#SvgjsClipPath447378996b6ee-2410-4fc2-818b-618679ec0a96)"><path d=" M -1.884153209637038 -1.6377558976232471 L -2.0347425018900394 -1.5548364772054555 L -2.0118681790161657 -1.534702307592515 L -1.8842723467353393 -1.6018956310345183 L -1.884153209637038 -1.6377558976232471 Z" fill="#209db0" transform="matrix(1,0,0,1,0,0)" fill-rule="evenodd"></path></g><g clip-path="url(#SvgjsClipPath447378996b6ee-2410-4fc2-818b-618679ec0a96)"><path d=" M -0.16548142954067924 -2.139323081472247 L -0.6201085966589175 -1.9407215386037715 L -0.5726920315349504 -1.9030742155405211 L -0.16548142954067924 -2.072368032226846 L -0.16548142954067924 -2.139323081472247 Z" fill="#209db0" transform="matrix(1,0,0,1,0,0)" fill-rule="evenodd"></path></g><g clip-path="url(#SvgjsClipPath447378996b6ee-2410-4fc2-818b-618679ec0a96)"><path d=" M -0.6959989282769252 -1.9074822881776738 L -1.0407816907612495 -1.7568929959246724 L -0.9931268514406795 -1.7283000923323306 L -0.6959989282769252 -1.8518452632709081 L -0.6959989282769252 -1.9074822881776738 Z" fill="#209db0" transform="matrix(1,0,0,1,0,0)" fill-rule="evenodd"></path></g><g clip-path="url(#SvgjsClipPath447378996b6ee-2410-4fc2-818b-618679ec0a96)"><path d=" M -1.099754554420455 -1.7311593826915648 L -1.3701957675646899 -1.612975381176551 L -1.3314762106167268 -1.587599179238348 L -1.099754554420455 -1.6839810917642006 L -1.099754554420455 -1.7311593826915648 Z" fill="#209db0" transform="matrix(1,0,0,1,0,0)" fill-rule="evenodd"></path></g><g clip-path="url(#SvgjsClipPath447378996b6ee-2410-4fc2-818b-618679ec0a96)"><path d=" M -1.4168975100988486 -1.592245526072103 L -1.635037537088758 -1.4969358474309629 L -1.6020365608592633 -1.475133758441802 L -1.41701664719715 -1.5520963239445225 L -1.4168975100988486 -1.592245526072103 Z" fill="#209db0" transform="matrix(1,0,0,1,0,0)" fill-rule="evenodd"></path></g><g clip-path="url(#SvgjsClipPath447378996b6ee-2410-4fc2-818b-618679ec0a96)"><path d=" M -1.673161408545214 -1.4802566536687636 L -1.8527010156854615 -1.4018644429864258 L -1.8278013621404638 -1.3813728620785808 L -1.673161408545214 -1.4455877580630485 L -1.673161408545214 -1.4802566536687636 Z" fill="#209db0" transform="matrix(1,0,0,1,0,0)" fill-rule="evenodd"></path></g><g clip-path="url(#SvgjsClipPath447378996b6ee-2410-4fc2-818b-618679ec0a96)"><path d=" M -1.8843914838336406 -1.3879254024851588 L -2.0347425018900394 -1.3221617242227723 L -2.0118681790161657 -1.3047677078707642 L -1.8843914838336406 -1.3577837166148985 L -1.8843914838336406 -1.3879254024851588 Z" fill="#209db0" transform="matrix(1,0,0,1,0,0)" fill-rule="evenodd"></path></g><g clip-path="url(#SvgjsClipPath447378996b6ee-2410-4fc2-818b-618679ec0a96)"><path d=" M -2.0347425018900394 -1.0894869712400892 L -2.0118681790161657 -1.0678040193492295 L -1.8845106209319422 -1.1065235762971937 L -1.8845106209319422 -1.1380949073470705 L -2.0347425018900394 -1.0894869712400892 Z" fill="#209db0" transform="matrix(1,0,0,1,0,0)" fill-rule="evenodd"></path></g><g clip-path="url(#SvgjsClipPath447378996b6ee-2410-4fc2-818b-618679ec0a96)"><path d=" M -1.8529392898820645 -1.1483406978009927 L -1.8278013621404638 -1.1237984555508995 L -1.673399682741817 -1.1707384722816614 L -1.673399682741817 -1.206360464673787 L -1.8529392898820645 -1.1483406978009927 Z" fill="#209db0" transform="matrix(1,0,0,1,0,0)" fill-rule="evenodd"></path></g><g clip-path="url(#SvgjsClipPath447378996b6ee-2410-4fc2-818b-618679ec0a96)"><path d=" M -1.4171357842954515 -1.2891607479932778 L -1.6352758112853607 -1.2186315857988337 L -1.6020365608592633 -1.1924214241725202 L -1.4171357842954515 -1.2485349974724915 L -1.4171357842954515 -1.2891607479932778 Z" fill="#209db0" transform="matrix(1,0,0,1,0,0)" fill-rule="evenodd"></path></g><g clip-path="url(#SvgjsClipPath447378996b6ee-2410-4fc2-818b-618679ec0a96)"><path d=" M -1.3704340417612928 -1.3041720223792566 L -1.3314762106167268 -1.2746260220005041 L -1.099754554420455 -1.345036047096646 L -1.099754554420455 -1.391618652532503 L -1.3704340417612928 -1.3041720223792566 Z" fill="#209db0" transform="matrix(1,0,0,1,0,0)" fill-rule="evenodd"></path></g><g clip-path="url(#SvgjsClipPath447378996b6ee-2410-4fc2-818b-618679ec0a96)"><path d=" M -0.6959989282769252 -1.5218355009759608 L -0.6959989282769252 -1.467747258347114 L -0.9931268514406795 -1.3774413378346337 L -1.0410199649578524 -1.4105614511624296 L -0.6959989282769252 -1.5218355009759608 Z" fill="#209db0" transform="matrix(1,0,0,1,0,0)" fill-rule="evenodd"></path></g><g clip-path="url(#SvgjsClipPath447378996b6ee-2410-4fc2-818b-618679ec0a96)"><path d=" M -0.16548142954067924 -1.6935120596283142 L -0.6198703224623148 -1.5463777432260548 L -0.5726920315349504 -1.5052754443120626 L -0.16548142954067924 -1.6289397523489424 L -0.16548142954067924 -1.6935120596283142 Z" fill="#209db0" transform="matrix(1,0,0,1,0,0)" fill-rule="evenodd"></path></g><g clip-path="url(#SvgjsClipPath447378996b6ee-2410-4fc2-818b-618679ec0a96)"><path d=" M -1.635037537088758 -1.775478383259695 L -1.635037537088758 -1.5587680014494025 L -1.6020365608592633 -1.574017550031985 L -1.6020365608592633 -1.7505787297146969 L -1.635037537088758 -1.775478383259695 Z" fill="#125b67" transform="matrix(1,0,0,1,0,0)" fill-rule="evenodd"></path></g><g clip-path="url(#SvgjsClipPath447378996b6ee-2410-4fc2-818b-618679ec0a96)"><path d=" M -0.6201085966589175 -2.7288134438676988 L -0.6201085966589175 -2.422273689938132 L -0.5726920315349504 -2.4496752225474596 L -0.5726920315349504 -2.6917618062959554 L -0.6201085966589175 -2.7288134438676988 Z" fill="#125b67" transform="matrix(1,0,0,1,0,0)" fill-rule="evenodd"></path></g><g clip-path="url(#SvgjsClipPath447378996b6ee-2410-4fc2-818b-618679ec0a96)"><path d=" M -1.0407816907612495 -2.448722125761048 L -1.0407816907612495 -2.1798296948947318 L -0.9931268514406795 -2.2072312275040593 L -0.9931268514406795 -2.4219162786432276 L -1.0407816907612495 -2.448722125761048 Z" fill="#125b67" transform="matrix(1,0,0,1,0,0)" fill-rule="evenodd"></path></g><g clip-path="url(#SvgjsClipPath447378996b6ee-2410-4fc2-818b-618679ec0a96)"><path d=" M -1.3699574933680871 -2.229748139083029 L -1.3699574933680871 -1.9899251602022603 L -1.3314762106167268 -2.0122037975846263 L -1.3314762106167268 -2.204610211341428 L -1.3699574933680871 -2.229748139083029 Z" fill="#125b67" transform="matrix(1,0,0,1,0,0)" fill-rule="evenodd"></path></g><g clip-path="url(#SvgjsClipPath447378996b6ee-2410-4fc2-818b-618679ec0a96)"><path d=" M -1.6020365608592633 -2.0310274591162516 L -1.6020365608592633 -1.8560150617114584 L -1.634799262892155 -1.837072263081532 L -1.634799262892155 -2.0535443706952208 L -1.6020365608592633 -2.0310274591162516 Z" fill="#125b67" transform="matrix(1,0,0,1,0,0)" fill-rule="evenodd"></path></g><g clip-path="url(#SvgjsClipPath447378996b6ee-2410-4fc2-818b-618679ec0a96)"><path d=" M -1.8524627414888588 -1.9087927962589897 L -1.8524627414888588 -1.711620898570131 L -1.8278013621404638 -1.725917350366302 L -1.8278013621404638 -1.8861567475817187 L -1.8524627414888588 -1.9087927962589897 Z" fill="#125b67" transform="matrix(1,0,0,1,0,0)" fill-rule="evenodd"></path></g><g clip-path="url(#SvgjsClipPath447378996b6ee-2410-4fc2-818b-618679ec0a96)"><path d=" M -2.034504227693436 -1.7875112301881388 L -2.0347425018900394 -1.6065419778682746 L -2.0118681790161657 -1.619647058681431 L -2.0118681790161657 -1.767972746066705 L -2.034504227693436 -1.7875112301881388 Z" fill="#125b67" transform="matrix(1,0,0,1,0,0)" fill-rule="evenodd"></path></g><g clip-path="url(#SvgjsClipPath447378996b6ee-2410-4fc2-818b-618679ec0a96)"><path d=" M -0.6201085966589175 -2.334827059784886 L -0.6201085966589175 -2.028287305855319 L -0.5726920315349504 -2.0502085319427814 L -0.5726920315349504 -2.2927716640844826 L -0.6201085966589175 -2.334827059784886 Z" fill="#125b67" transform="matrix(1,0,0,1,0,0)" fill-rule="evenodd"></path></g><g clip-path="url(#SvgjsClipPath447378996b6ee-2410-4fc2-818b-618679ec0a96)"><path d=" M -0.9931268514406795 -2.0712957983421334 L -0.9931268514406795 -1.8557767875148556 L -1.0407816907612495 -1.833736424329092 L -1.0407816907612495 -2.1028671293920107 L -0.9931268514406795 -2.0712957983421334 Z" fill="#125b67" transform="matrix(1,0,0,1,0,0)" fill-rule="evenodd"></path></g><g clip-path="url(#SvgjsClipPath447378996b6ee-2410-4fc2-818b-618679ec0a96)"><path d=" M -1.3699574933680871 -1.9214213286789408 L -1.3701957675646899 -1.6812409385032676 L -1.3314762106167268 -1.6991115032484816 L -1.3314762106167268 -1.8930666992832015 L -1.3699574933680871 -1.9214213286789408 Z" fill="#125b67" transform="matrix(1,0,0,1,0,0)" fill-rule="evenodd"></path></g><g clip-path="url(#SvgjsClipPath447378996b6ee-2410-4fc2-818b-618679ec0a96)"><path d=" M -1.8524627414888588 -1.655269051073557 L -1.8527010156854615 -1.4580971533846987 L -1.8278013621404638 -1.4696534519199367 L -1.8278013621404638 -1.6316799056098747 L -1.8524627414888588 -1.655269051073557 Z" fill="#125b67" transform="matrix(1,0,0,1,0,0)" fill-rule="evenodd"></path></g><g clip-path="url(#SvgjsClipPath447378996b6ee-2410-4fc2-818b-618679ec0a96)"><path d=" M -2.0347425018900394 -1.5548364772054555 L -2.0347425018900394 -1.3737480877872899 L -2.0118681790161657 -1.3843512895361167 L -2.0118681790161657 -1.534702307592515 L -2.0347425018900394 -1.5548364772054555 Z" fill="#125b67" transform="matrix(1,0,0,1,0,0)" fill-rule="evenodd"></path></g><g clip-path="url(#SvgjsClipPath447378996b6ee-2410-4fc2-818b-618679ec0a96)"><path d=" M -0.6201085966589175 -1.9407215386037715 L -0.6198703224623148 -1.6341817846742048 L -0.5726920315349504 -1.6507418413381023 L -0.5726920315349504 -1.9030742155405211 L -0.6201085966589175 -1.9407215386037715 Z" fill="#125b67" transform="matrix(1,0,0,1,0,0)" fill-rule="evenodd"></path></g><g clip-path="url(#SvgjsClipPath447378996b6ee-2410-4fc2-818b-618679ec0a96)"><path d=" M -1.0407816907612495 -1.7568929959246724 L -1.0410199649578524 -1.4876431537634516 L -0.9931268514406795 -1.5043223475256517 L -0.9931268514406795 -1.7283000923323306 L -1.0407816907612495 -1.7568929959246724 Z" fill="#125b67" transform="matrix(1,0,0,1,0,0)" fill-rule="evenodd"></path></g><g clip-path="url(#SvgjsClipPath447378996b6ee-2410-4fc2-818b-618679ec0a96)"><path d=" M -1.3701957675646899 -1.612975381176551 L -1.3704340417612928 -1.372914128099179 L -1.3314762106167268 -1.386495757305542 L -1.3314762106167268 -1.587599179238348 L -1.3701957675646899 -1.612975381176551 Z" fill="#125b67" transform="matrix(1,0,0,1,0,0)" fill-rule="evenodd"></path></g><g clip-path="url(#SvgjsClipPath447378996b6ee-2410-4fc2-818b-618679ec0a96)"><path d=" M -1.635037537088758 -1.4969358474309629 L -1.6352758112853607 -1.2804637398172733 L -1.6020365608592633 -1.2920200383525118 L -1.6020365608592633 -1.475133758441802 L -1.635037537088758 -1.4969358474309629 Z" fill="#125b67" transform="matrix(1,0,0,1,0,0)" fill-rule="evenodd"></path></g><g clip-path="url(#SvgjsClipPath447378996b6ee-2410-4fc2-818b-618679ec0a96)"><path d=" M -1.8527010156854615 -1.4018644429864258 L -1.8529392898820645 -1.2046925452975668 L -1.8278013621404638 -1.2133895534735712 L -1.8278013621404638 -1.3813728620785808 L -1.8527010156854615 -1.4018644429864258 Z" fill="#125b67" transform="matrix(1,0,0,1,0,0)" fill-rule="evenodd"></path></g><g clip-path="url(#SvgjsClipPath447378996b6ee-2410-4fc2-818b-618679ec0a96)"><path d=" M -2.0347425018900394 -1.3221617242227723 L -2.0347425018900394 -1.1411924719029076 L -2.0118681790161657 -1.1491746574891035 L -2.0118681790161657 -1.3047677078707642 L -2.0347425018900394 -1.3221617242227723 Z" fill="#125b67" transform="matrix(1,0,0,1,0,0)" fill-rule="evenodd"></path></g><g clip-path="url(#SvgjsClipPath447378996b6ee-2410-4fc2-818b-618679ec0a96)"><path d=" M -2.0118681790161657 -1.0678040193492295 L -2.0118681790161657 -0.9139980254420901 L -2.0348616389883407 -0.9085177189202249 L -2.0347425018900394 -1.0894869712400892 L -2.0118681790161657 -1.0678040193492295 Z" fill="#125b67" transform="matrix(1,0,0,1,0,0)" fill-rule="evenodd"></path></g><g clip-path="url(#SvgjsClipPath447378996b6ee-2410-4fc2-818b-618679ec0a96)"><path d=" M -1.8529392898820645 -1.1483406978009927 L -1.8529392898820645 -0.9514070743087375 L -1.8278013621404638 -0.9572447921255076 L -1.8278013621404638 -1.1237984555508995 L -1.8529392898820645 -1.1483406978009927 Z" fill="#125b67" transform="matrix(1,0,0,1,0,0)" fill-rule="evenodd"></path></g><g clip-path="url(#SvgjsClipPath447378996b6ee-2410-4fc2-818b-618679ec0a96)"><path d=" M -1.6352758112853607 -1.2186315857988337 L -1.6355140854819639 -1.0023977523817473 L -1.6020365608592633 -1.0102608008696419 L -1.6020365608592633 -1.1924214241725202 L -1.6352758112853607 -1.2186315857988337 Z" fill="#125b67" transform="matrix(1,0,0,1,0,0)" fill-rule="evenodd"></path></g><g clip-path="url(#SvgjsClipPath447378996b6ee-2410-4fc2-818b-618679ec0a96)"><path d=" M -1.3704340417612928 -1.0644681805967906 L -1.3314762106167268 -1.073641737166 L -1.3314762106167268 -1.2746260220005041 L -1.3704340417612928 -1.3041720223792566 L -1.3704340417612928 -1.0644681805967906 Z" fill="#125b67" transform="matrix(1,0,0,1,0,0)" fill-rule="evenodd"></path></g><g clip-path="url(#SvgjsClipPath447378996b6ee-2410-4fc2-818b-618679ec0a96)"><path d=" M -1.0410199649578524 -1.4105614511624296 L -0.9931268514406795 -1.3774413378346337 L -0.9931268514406795 -1.1529870446347488 L -1.0410199649578524 -1.1417881573944149 L -1.0410199649578524 -1.4105614511624296 Z" fill="#125b67" transform="matrix(1,0,0,1,0,0)" fill-rule="evenodd"></path></g><g clip-path="url(#SvgjsClipPath447378996b6ee-2410-4fc2-818b-618679ec0a96)"><path d=" M -0.6198703224623148 -1.5463777432260548 L -0.6198703224623148 -1.2404336747879947 L -0.5726920315349504 -1.2515134249300273 L -0.5726920315349504 -1.5052754443120626 L -0.6198703224623148 -1.5463777432260548 Z" fill="#125b67" transform="matrix(1,0,0,1,0,0)" fill-rule="evenodd"></path></g><g clip-path="url(#SvgjsClipPath447378996b6ee-2410-4fc2-818b-618679ec0a96)"><path d=" M 0 -0.18749999999999956 L -2.096932067203383 -0.18749999999999956 L -2.096932067203383 -0.39575164783089045 L 0 -0.4531757292121781 L 0 -0.18749999999999956 Z" fill="#209db0" transform="matrix(1,0,0,1,0,0)" fill-rule="nonzero"></path></g><g clip-path="url(#SvgjsClipPath447378996b6ee-2410-4fc2-818b-618679ec0a96)"><path d=" M 2.096932067203383 -0.18749999999999956 L 0 -0.18749999999999956 L 0 -0.4531757292121781 L 2.096932067203383 -0.39575164783089045 L 2.096932067203383 -0.18749999999999956 Z" fill="#125b67" transform="matrix(1,0,0,1,0,0)" fill-rule="nonzero"></path></g></g></g></g><defs><clipPath id="SvgjsClipPath44742"><path d=" M -2.096932067203383 -3.3840674845255365 h 4.193864134406766 v 3.1965674845255365 h -4.193864134406766 Z"></path></clipPath><clipPath id="SvgjsClipPath447378996b6ee-2410-4fc2-818b-618679ec0a96"><path d=" M -2.096932067203383 -3.3840674845255365 L 2.096932067203383 -3.3840674845255365 L 2.096932067203383 -0.18749999999999956 L -2.096932067203383 -0.18749999999999956 Z"></path></clipPath></defs></svg>