<svg xmlns="http://www.w3.org/2000/svg" version="1.1" xmlns:xlink="http://www.w3.org/1999/xlink" viewBox="0 0 4.646864340575806 4.005708228933209"><g transform="matrix(0.8474539995692862,0,0,0.8474539995692862,2.3200755472736563,3.553551084636291)"><rect width="5.367912054701557" height="5.367912054701557" x="-2.679995195239593" y="-4.513786284754508" fill="#fffcf7"></rect><g transform="matrix(1,0,0,1,0,0)"><path d=" M -1.9241547430922925 -2.2180892150040803 L -1.8617184597933476 -2.329748139733192 Q -1.8478966871546496 -2.354466527650324 -1.8314169724086535 -2.379936406276313 Q -1.814937257662657 -2.4054062849023023 -1.7953368502729006 -2.427452868398987 Q -1.7757364428831441 -2.4494994518956714 -1.7522386352669743 -2.4660101304701745 Q -1.7287408276508047 -2.4825208090446775 -1.7010020224841629 -2.4891077073078276 Q -1.673263217317521 -2.4956946055709777 -1.6406006433563616 -2.4905773564933105 Q -1.607938069395202 -2.485460107415643 -1.5700081293154653 -2.4642508356079857 L -1.5346352638478458 -2.44447140234916 Q -1.505655084910519 -2.428266565462411 -1.486009851379107 -2.4063726067591373 Q -1.4663646178476948 -2.3844786480558646 -1.4554516325036102 -2.3604745873122166 Q -1.4445386471595258 -2.336470526568569 -1.4421631061689801 -2.3122054502788227 Q -1.4397875651784346 -2.2879403739890765 -1.4457729504248602 -2.2672316083541864 L -1.4423635176087042 -2.265325156955745 Q -1.4022964823120034 -2.313968855141705 -1.3453732554651698 -2.318222530803463 Q -1.2884500286183362 -2.322476206465221 -1.2236708051113705 -2.2862536298948406 L -1.1865932232356728 -2.265520970936794 Q -1.1469585667478583 -2.2433584734299163 -1.1226505799680269 -2.218297811739365 Q -1.0983425931881956 -2.1932371500488133 -1.086490244458039 -2.165910661671042 Q -1.0746378957278828 -2.138584173293271 -1.0735799712303398 -2.109461539921317 Q -1.0725220467327967 -2.080338906549363 -1.0796006043605684 -2.0501716188920827 Q -1.08667916198834 -2.020004331234803 -1.1003521411367676 -1.989048981434223 Q -1.114025120285195 -1.9580936316336433 -1.1314214892959698 -1.926982557186219 L -1.196240836842966 -1.8110618414369115 L -1.9241547430922925 -2.2180892150040803 M -1.5401726663752686 -2.173445665485459 Q -1.5277807322854018 -2.1956069787904737 -1.522860794794025 -2.216911510487377 Q -1.517940857302648 -2.23821604218428 -1.5219662575496085 -2.257529625053211 Q -1.525991657796569 -2.276843207922142 -1.5401722136231135 -2.2940031861596824 Q -1.554352769449658 -2.3111631643972226 -1.5799235155708289 -2.3254615498855307 L -1.6097560527121946 -2.34214299962189 Q -1.6353267988333653 -2.356441385110198 -1.6577907146239246 -2.362289331427 Q -1.6802546304144836 -2.368137277743802 -1.7004457883612494 -2.36404315803203 Q -1.720636946308015 -2.3599490383202575 -1.7382735373951652 -2.3449161242896737 Q -1.7559101284823155 -2.3298832102590903 -1.7711617396698442 -2.3026077477298417 L -1.783077060910101 -2.2812987926288657 L -1.5520879876155254 -2.1521367103844833 L -1.5401726663752686 -2.173445665485459 M -1.1947885678703944 -1.9937437433642355 Q -1.1823966337805274 -2.0159050566692502 -1.1780220286035725 -2.0372348052399487 Q -1.1736474234266179 -2.0585645538106476 -1.1785251818776175 -2.078354749529189 Q -1.1834029403286168 -2.0981449452477303 -1.1982227648081907 -2.115662383122478 Q -1.2130425892877645 -2.133179820997226 -1.2386133354089353 -2.147478206485534 L -1.2952951559775303 -2.1791729609846167 Q -1.320865902098701 -2.1934713464729247 -1.34354290744027 -2.1994384460021292 Q -1.3662199127818389 -2.2054055455313337 -1.3861979811775946 -2.201192272607159 Q -1.4061760495733504 -2.196978999682984 -1.4236934874480984 -2.1821591752034104 Q -1.4412109253228462 -2.1673393507238368 -1.4564625365103747 -2.1400638881945877 L -1.4740972119459546 -2.108526634645144 L -1.2124232433059743 -1.9622064898147917 L -1.1947885678703944 -1.9937437433642355 M -1.427726559847697 -2.9081022634343223 L -1.3261604139925156 -2.9850803774869643 L -0.9569014147821416 -2.4978741912391205 Q -0.9333065905514468 -2.466742805536383 -0.9145618809283377 -2.4484777449313886 Q -0.8958171713052286 -2.4302126843263947 -0.8797167186419187 -2.423116069006406 Q -0.8636162659786087 -2.4160194536864177 -0.8489332255543629 -2.418876753178382 Q -0.8342501851301172 -2.421734052670346 -0.8194627769213167 -2.432941594179926 Q -0.8046753687125163 -2.444149135689506 -0.7975664391448458 -2.457808213159028 Q -0.7904575095771753 -2.47146729062855 -0.7925488386742534 -2.4891815768523515 Q -0.7946401677713314 -2.506895863076153 -0.8065748867719666 -2.5303222914816113 Q -0.8185096057726018 -2.55374871988707 -0.8421044300032966 -2.5848801055898076 L -1.2113634292136706 -3.0720862918376515 L -1.1109647103223417 -3.148179599981642 L -0.762056247010942 -2.6878242339024094 Q -0.7251893341504814 -2.639181443741882 -0.7067229386195178 -2.5986490710899126 Q -0.6882565430885543 -2.5581166984379435 -0.6834021215179125 -2.5250352941657286 Q -0.6785476999472706 -2.4919538898935136 -0.684763513000921 -2.4657991582760097 Q -0.6909793260545714 -2.4396444266585053 -0.7032289985696552 -2.4190257374335395 Q -0.7154786710847391 -2.3984070482085738 -0.7315153990281105 -2.383189247972387 Q -0.747552126971482 -2.3679714477362 -0.7619503928589981 -2.3570588415295033 Q -0.7763486587465143 -2.346146235322807 -0.7951401685580806 -2.3349673259509043 Q -0.8139316783696467 -2.3237884165790015 -0.8368993859307848 -2.3177154608929937 Q -0.8598670934919229 -2.3116425052069856 -0.8865338065867892 -2.312875203730819 Q -0.9132005196816554 -2.314107902254652 -0.9437383344570558 -2.327723576536543 Q -0.9742761492324562 -2.341339250818435 -1.0079661988027047 -2.3700271078458566 Q -1.041656248372953 -2.398714964873278 -1.0788180965362975 -2.4477468973550898 L -1.427726559847697 -2.9081022634343223 M -0.448648236316269 -2.833475048189623 L -0.7505298141630649 -3.3298483385587865 L -0.627148591894499 -3.3617604995400217 L -0.4284554463933513 -3.0010983656383354 L -0.4227827465189345 -3.002565591430576 L -0.42482229637363234 -3.4140915527966067 L -0.30191379909460114 -3.445881444961822 L -0.3262124640267726 -2.8651426715388184 L -0.25664150771135913 -2.596162152493554 L -0.3790772800008555 -2.564494529144359 L -0.448648236316269 -2.833475048189623 M 0.10841574856034789 -3.4617074260949745 L 0.2335136924780776 -3.443163933105021 L 0.18232219638612132 -3.097816327308972 L 0.33060431523841105 -3.0758362024135444 L 0.38179581133036733 -3.4211838082095936 L 0.5068937552480971 -3.40264031521964 L 0.3846069366116476 -2.5776700904648817 L 0.2595089926939178 -2.596213583454835 L 0.3159986296401466 -2.9773034589416643 L 0.16771651078785685 -2.9992835838370917 L 0.1112268738416281 -2.6181937083502627 L -0.013871070076101652 -2.636737201340216 L 0.10841574856034789 -3.4617074260949745 M 0.8931291990027693 -3.2566313293851543 L 1.0059480405654464 -3.1994888259996053 L 0.6291163966175014 -2.455494303261951 L 0.5162975550548243 -2.5126368066475 L 0.8931291990027693 -3.2566313293851543 M 1.2836531732013357 -3.0321943632688684 L 1.3775396357271075 -2.9431534913515063 L 0.9895334291258022 -2.4006324810955317 L 0.9934306030419663 -2.3969364449027357 L 1.5150035884063504 -2.812784214732878 L 1.6085357623942893 -2.72407934610577 L 0.9244584073740268 -2.223451546755889 L 0.8195890001754289 -2.322908520671131 L 1.2836531732013357 -3.0321943632688684 M 1.8161907954754433 -2.418653197957611 L 1.9556343560922083 -2.1428141226906274 L 1.8667383507928959 -2.0978749657146083 L 1.784349896336861 -2.260850975430014 L 1.5616741183567213 -2.14828279300479 L 1.6253379240727481 -2.022346785497431 L 1.536441918773436 -1.977407628521412 L 1.4727781130574091 -2.1033436360287707 L 1.2178557449196754 -1.974473994700481 L 1.3024470992274761 -1.8071403376664816 L 1.213551093928164 -1.7622011806904625 L 1.0719046334596332 -2.0423979032760395 L 1.8161907954754433 -2.418653197957611" fill="#431a10" fill-rule="nonzero"></path></g><g transform="matrix(1,0,0,1,0,0)"><g transform="matrix(1,0,0,1,0,0)" clip-path="url(#SvgjsClipPath148148)"><g clip-path="url(#SvgjsClipPath14814307962b88-27d7-4a5b-a98e-11c012d02b45)"><path d=" M 0.22419608292137339 -1.8836280715886626 C -0.12867337781464738 -1.8692631749590833 -0.41174634080929995 -1.5836552302062696 -0.42171726905806683 -1.2296027779831071 C -0.4218862678419443 -1.2257158059539268 -0.4186752909482735 -1.2225048290602563 -0.4147883189190932 -1.2225048290602563 L 0.2559678542903252 -1.2225048290602563 C 0.2603618226711377 -1.2225048290602563 0.28537364268499354 -1.220814841221482 0.27844469254602 -1.1925920443139555 L 0.18549536141344758 -0.6915106501174508 C 0.17636942708406766 -0.6421630052252487 0.15896255234469492 -0.5963643347944723 0.13513372381798106 -0.5558046266638952 C 0.1325987420598198 -0.5515796570669602 0.13513372381798106 -0.5461716959828831 0.14003468855042556 -0.5454957008473733 C 0.176538425867945 -0.5394117446277868 0.21405615588872862 -0.5362007677341163 0.2522498810450222 -0.5362007677341163 C 0.613907278542668 -0.5362007677341163 0.9089791551926165 -0.8209637185675429 0.9255410360126015 -1.178565145252131 C 0.9432859083197291 -1.5726703092542382 0.6183012469234805 -1.8995139572731388 0.22419608292137339 -1.8836280715886626 Z" fill="#431a10" transform="matrix(1,0,0,1,0,0)" fill-rule="nonzero"></path></g><g clip-path="url(#SvgjsClipPath14814307962b88-27d7-4a5b-a98e-11c012d02b45)"><path d=" M -0.907757771489482 -1.294329312208153 L -0.7897966203430538 -1.266275514084504 L -0.7897966203430538 -1.1224575490048325 Z" fill="none" transform="matrix(1,0,0,1,0,0)" fill-rule="nonzero" stroke-miterlimit="10" stroke-linejoin="round" stroke-linecap="round" stroke-width="0.036954288075336524" stroke="#431a10"></path></g><g clip-path="url(#SvgjsClipPath14814307962b88-27d7-4a5b-a98e-11c012d02b45)"><path d=" M -0.7889516264236667 -0.4593063210698973 L -0.7098601955690415 -0.27104167583046856 L -0.6201218413301397 -0.27104167583046856 Z" fill="none" transform="matrix(1,0,0,1,0,0)" fill-rule="nonzero" stroke-miterlimit="10" stroke-linejoin="round" stroke-linecap="round" stroke-width="0.036954288075336524" stroke="#431a10"></path></g><g clip-path="url(#SvgjsClipPath14814307962b88-27d7-4a5b-a98e-11c012d02b45)"><path d=" M -0.7897966203430538 -0.46032031377316174 L -0.2106377879951885 -0.46032031377316174 C -0.057355891018382565 -0.46032031377316174 0.07446316040599288 -0.5686485342385779 0.1042069463684161 -0.7190574518894681 L 0.1885373395232408 -1.1449343872605273 L -0.7897966203430538 -1.1449343872605273 L -0.7897966203430538 -0.46032031377316174 Z" fill="#3e7742" transform="matrix(1,0,0,1,0,0)" fill-rule="nonzero" stroke-miterlimit="10" stroke-linejoin="round" stroke-linecap="round" stroke-width="0.036954288075336524" stroke="#431a10"></path></g><g clip-path="url(#SvgjsClipPath14814307962b88-27d7-4a5b-a98e-11c012d02b45)"><path d=" M -0.7897966203430538 -1.0075383759681973 L 0.15693456693816632 -1.0075383759681973 Z" fill="none" transform="matrix(1,0,0,1,0,0)" fill-rule="nonzero" stroke-miterlimit="10" stroke-linecap="round" stroke-width="0.036954288075336524" stroke="#431a10"></path></g><g clip-path="url(#SvgjsClipPath14814307962b88-27d7-4a5b-a98e-11c012d02b45)"><path d=" M -0.7897966203430538 -0.870311363459745 L 0.12871177003063972 -0.870311363459745 Z" fill="none" transform="matrix(1,0,0,1,0,0)" fill-rule="nonzero" stroke-miterlimit="10" stroke-linecap="round" stroke-width="0.036954288075336524" stroke="#431a10"></path></g><g clip-path="url(#SvgjsClipPath14814307962b88-27d7-4a5b-a98e-11c012d02b45)"><path d=" M -0.7897966203430538 -0.7330843509512925 L 0.09879898528433917 -0.7330843509512925 Z" fill="none" transform="matrix(1,0,0,1,0,0)" fill-rule="nonzero" stroke-miterlimit="10" stroke-linecap="round" stroke-width="0.036954288075336524" stroke="#431a10"></path></g><g clip-path="url(#SvgjsClipPath14814307962b88-27d7-4a5b-a98e-11c012d02b45)"><path d=" M -0.7897966203430538 -0.5956883396589627 L 0.04066340363051202 -0.5956883396589627 Z" fill="none" transform="matrix(1,0,0,1,0,0)" fill-rule="nonzero" stroke-miterlimit="10" stroke-linecap="round" stroke-width="0.036954288075336524" stroke="#431a10"></path></g><g clip-path="url(#SvgjsClipPath14814307962b88-27d7-4a5b-a98e-11c012d02b45)"><path d=" M -0.6349937343113512 -1.14476538847665 L -0.6349937343113512 -0.46032031377316174 Z" fill="none" transform="matrix(1,0,0,1,0,0)" fill-rule="nonzero" stroke-miterlimit="10" stroke-linecap="round" stroke-width="0.036954288075336524" stroke="#431a10"></path></g><g clip-path="url(#SvgjsClipPath14814307962b88-27d7-4a5b-a98e-11c012d02b45)"><path d=" M -0.4906687728800478 -1.14476538847665 L -0.4906687728800478 -0.46032031377316174 Z" fill="none" transform="matrix(1,0,0,1,0,0)" fill-rule="nonzero" stroke-miterlimit="10" stroke-linecap="round" stroke-width="0.036954288075336524" stroke="#431a10"></path></g><g clip-path="url(#SvgjsClipPath14814307962b88-27d7-4a5b-a98e-11c012d02b45)"><path d=" M -0.3463438114487444 -1.14476538847665 L -0.3463438114487444 -0.46032031377316174 Z" fill="none" transform="matrix(1,0,0,1,0,0)" fill-rule="nonzero" stroke-miterlimit="10" stroke-linecap="round" stroke-width="0.036954288075336524" stroke="#431a10"></path></g><g clip-path="url(#SvgjsClipPath14814307962b88-27d7-4a5b-a98e-11c012d02b45)"><path d=" M -0.20218784880131835 -1.14476538847665 L -0.20218784880131835 -0.46032031377316174 Z" fill="none" transform="matrix(1,0,0,1,0,0)" fill-rule="nonzero" stroke-miterlimit="10" stroke-linecap="round" stroke-width="0.036954288075336524" stroke="#431a10"></path></g><g clip-path="url(#SvgjsClipPath14814307962b88-27d7-4a5b-a98e-11c012d02b45)"><path d=" M -0.05786288737001477 -1.14476538847665 L -0.05786288737001477 -0.4990210352810873 Z" fill="none" transform="matrix(1,0,0,1,0,0)" fill-rule="nonzero" stroke-miterlimit="10" stroke-linecap="round" stroke-width="0.036954288075336524" stroke="#431a10"></path></g><g clip-path="url(#SvgjsClipPath14814307962b88-27d7-4a5b-a98e-11c012d02b45)"><path d=" M 0.0864620740612887 -1.14476538847665 L 0.0864620740612887 -0.6766387571362393 Z" fill="none" transform="matrix(1,0,0,1,0,0)" fill-rule="nonzero" stroke-miterlimit="10" stroke-linecap="round" stroke-width="0.036954288075336524" stroke="#431a10"></path></g><g clip-path="url(#SvgjsClipPath14814307962b88-27d7-4a5b-a98e-11c012d02b45)"><path d=" M -0.48982377896066076 -0.27104167583046856 L -0.20117385609805383 -0.27104167583046856 Z" fill="none" transform="matrix(1,0,0,1,0,0)" fill-rule="nonzero" stroke-miterlimit="10" stroke-linejoin="round" stroke-linecap="round" stroke-width="0.036954288075336524" stroke="#431a10"></path></g><g clip-path="url(#SvgjsClipPath14814307962b88-27d7-4a5b-a98e-11c012d02b45)"><path d=" M -0.06394684358960145 -0.27104167583046856 C -0.06394684358960145 -0.23510752390218825 -0.0930772234541215 -0.2059771440376681 -0.12901137538240215 -0.2059771440376681 C -0.16494552731068257 -0.2059771440376681 -0.19407590717520284 -0.23510752390218825 -0.19407590717520284 -0.27104167583046856 C -0.19407590717520284 -0.3069758277587493 -0.16494552731068257 -0.3361062076232695 -0.12901137538240215 -0.3361062076232695 C -0.0930772234541215 -0.3361062076232695 -0.06394684358960145 -0.3069758277587493 -0.06394684358960145 -0.27104167583046856 Z" fill="#3e7742" transform="matrix(1,0,0,1,0,0)" fill-rule="nonzero" stroke-miterlimit="10" stroke-linejoin="round" stroke-linecap="round" stroke-width="0.036954288075336524" stroke="#431a10"></path></g><g clip-path="url(#SvgjsClipPath14814307962b88-27d7-4a5b-a98e-11c012d02b45)"><path d=" M -0.5444356345713739 -0.3352404775531006 C -0.508965033202968 -0.32948382641419016 -0.4848771220929964 -0.2960625415956264 -0.49063377323190693 -0.26059194022722054 C -0.49639042437081743 -0.2251213388588147 -0.5298117091893816 -0.20103342774884303 -0.5652823105577873 -0.2067900788877537 C -0.6007529119261932 -0.21254673002666413 -0.6248408230361648 -0.24596801484522834 -0.6190841718972543 -0.28143861621363375 C -0.6133275207583437 -0.3169092175820396 -0.5799062359397796 -0.3409971286920115 -0.5444356345713739 -0.3352404775531006 Z" fill="#3e7742" transform="matrix(1,0,0,1,0,0)" fill-rule="nonzero" stroke-miterlimit="10" stroke-linejoin="round" stroke-linecap="round" stroke-width="0.005920076949668912" stroke="#431a10"></path></g><g clip-path="url(#SvgjsClipPath14814307962b88-27d7-4a5b-a98e-11c012d02b45)"><path d=" M 0.7869620332331302 -0.8682833780532162 C 0.795242973643123 -0.8725083476501512 0.8021719237820963 -0.8801132929246345 0.803185916485361 -0.8894082260378916 C 0.8050449031080122 -0.9068151007772643 0.7862860380976204 -0.9184760168648054 0.770231153629267 -0.9255739657876563 C 0.7359244005021539 -0.9409528551205001 0.7017866461589182 -0.956331744453344 0.6676488918156824 -0.9717106337861876 C 0.6480450328859035 -0.9752596082476132 0.6281031763883698 -0.977287593654142 0.608161319890836 -0.9779635887896517 C 0.5980213928581917 -0.9783015863574066 0.5860224792028961 -0.9774565924380194 0.5801075217671867 -0.9690066532441493 C 0.5762205497380064 -0.963429693376195 0.5760515509541293 -0.9561627456694665 0.5760515509541293 -0.9494027943143702 C 0.5760515509541293 -0.9291229402490817 0.5762205497380064 -0.9088430861837933 0.5762205497380064 -0.8885632321185047 C 0.5762205497380064 -0.8841692637376921 0.576389548521884 -0.8796062965730023 0.5787555314961677 -0.8760573221115768 C 0.5814595120382062 -0.8723393488662738 0.5860224792028961 -0.8706493610274999 0.5905854463675861 -0.8692973707564806 C 0.6451720535599874 -0.852735489936495 0.7036456327815692 -0.8547634753430238 0.7602602253805 -0.8616924254819973 C 0.7693861597098801 -0.8628754169691393 0.7786810928231376 -0.864058408456281 0.7869620332331302 -0.8682833780532162 Z" fill="#3e7742" transform="matrix(1,0,0,1,0,0)" fill-rule="nonzero"></path></g><g clip-path="url(#SvgjsClipPath14814307962b88-27d7-4a5b-a98e-11c012d02b45)"><path d=" M 0.661057939244464 -1.7448800700253135 C 0.6262441897657187 -1.7415000943477654 0.5924444329902374 -1.7188542573081933 0.5608416604051629 -1.7004333898655561 C 0.48107423441502806 -1.6541277230831473 0.38812490328245564 -1.6308058909080654 0.29585156728539297 -1.6340168678017362 C 0.27540271443622677 -1.634692862937246 0.254953861587061 -1.6367208483437747 0.23551900144115945 -1.6433118009149934 C 0.22166110116321214 -1.6478747680796832 0.20847919602077458 -1.654803718218657 0.1941142993911953 -1.6571697011929405 C 0.16893348059346214 -1.6613946707898757 0.14172467638919994 -1.649902753486212 0.12702178219186577 -1.628946904285414 L 0.12702178219186577 -1.628946904285414 C 0.10116496825862287 -1.5998791134585004 0.12296581137880791 -1.5527284527567047 0.09592600595842327 -1.5248436534169327 C 0.07530815432537996 -1.5035498066483797 0.03643843403357683 -1.4964518577255288 0.031537469301132104 -1.4672150681147378 C 0.027988494839706668 -1.4462592189139398 0.0453953695790793 -1.4283453478229349 0.06060526012804568 -1.4136424536256007 C 0.07598414946088972 -1.3989395594282663 0.09187003514536562 -1.3788287041468552 0.08511008379026941 -1.3587178488654441 C 0.07970212270619248 -1.3424939656132133 0.061957250399064856 -1.3347200215548527 0.048606346472750084 -1.3240730981705764 C 0.024101522810526355 -1.30430024045692 0.01294760307461762 -1.269655489762052 0.02122854348461045 -1.2394047074479966 C 0.022580533755629628 -1.2345037427155519 0.02443952037828101 -1.2297717767669845 0.028157493623583996 -1.2263918010894366 C 0.030354477813990255 -1.2245328144667849 0.03288945957215128 -1.2231808241957656 0.035762438898067295 -1.2225048290602563 L 0.05587329417947828 -1.2225048290602563 C 0.0989679840682165 -1.2275747925765783 0.14087968246981264 -1.243291679477177 0.176538425867945 -1.2679655019232778 C 0.1985082677720078 -1.2830063936883669 0.22115410481157993 -1.302272255050391 0.24768691388033237 -1.2995682745083523 C 0.2603618226711377 -1.2983852830212106 0.27185373997480133 -1.2919633292338693 0.28250066335907764 -1.2848653803110182 C 0.2902746074174385 -1.2796264180108188 0.29787955269192157 -1.2737114605751096 0.3017665247211019 -1.2652615213812393 C 0.30413250769538536 -1.2600225590810399 0.3043015064792629 -1.2137168922986308 0.3022735210727341 -1.1783961464682533 C 0.2919645952562122 -1.1785651452521309 0.28199366700744544 -1.1748471720068279 0.2742197229490848 -1.1684252182194865 L 0.21473215102423837 -0.8481725227718049 C 0.21507014859199325 -0.8471585300685405 0.2154081461597479 -0.8459755385813987 0.21591514251138033 -0.8449615458781343 C 0.21608414129525788 -0.8447925470942568 0.21608414129525788 -0.8444545495265021 0.2162531400791352 -0.8442855507426246 C 0.22656206589565686 -0.8199497258642785 0.23416701117013994 -0.7927409216600163 0.2502218956384936 -0.7739820566496243 C 0.274726719300717 -0.745421262174343 0.3147794310796621 -0.744238270687201 0.34418521947433045 -0.7645181247524895 C 0.3735910078689988 -0.7849669776016557 0.3928568692310228 -0.8229917039740717 0.4026587986959125 -0.8630444157530164 C 0.4122917293769246 -0.9030971275319614 0.41347472086406634 -0.9455158222851896 0.41398171721569876 -0.9874275206867862 C 0.4146577123512083 -1.0465770950438777 0.410770740322028 -1.1145146061625946 0.3725770151657344 -1.1491593568574625 C 0.36260608691696783 -1.1582852911868424 0.3482411902873883 -1.1636932522709191 0.3208633872992488 -1.1741711768713183 C 0.3419882352839241 -1.213885891082508 0.3654790662428835 -1.269655489762052 0.3884629008502105 -1.2686414970587874 C 0.40586977558958304 -1.2677965031394003 0.42310765154507846 -1.26390953111022 0.4401765287166963 -1.2606985542165494 C 0.4624843681885138 -1.2566425834034918 0.4849612064442086 -1.2539386028614532 0.5076070434837807 -1.2520796162388017 C 0.5074380446999032 -1.2375457208253449 0.5084520374031676 -1.2228428266280107 0.5104800228096966 -1.2086469287823087 C 0.5113250167290837 -1.2025629725627223 0.5125080082162257 -1.1961410187753807 0.5153809875421413 -1.191240054042936 C 0.5187609632196895 -1.1853250966072268 0.5241689243037664 -1.1821141197135563 0.5295768853878433 -1.1800861343070275 C 0.5532367151306798 -1.1711291987615249 0.5785865327122908 -1.1826211160651883 0.6002183770485985 -1.1983380029657869 C 0.6125552882716487 -1.2072949385112894 0.624385203143067 -1.2177728631116884 0.6333421386885696 -1.232137759741268 C 0.6360461192306082 -1.2365317281220802 0.6384121022048919 -1.2412636940706476 0.6404400876114207 -1.2461646588030924 C 0.662409929515483 -1.2461646588030924 0.6842107726356683 -1.2470096527224794 0.7056736181880989 -1.2508966247516597 C 0.7420083567217406 -1.2573185785390013 0.7780050976876278 -1.2720214727363355 0.8036929128369934 -1.2987232805889652 C 0.8227897754151401 -1.3186651370864992 0.835633682989823 -1.3475639291295352 0.8275217413637073 -1.3739277394144103 C 0.8248177608216689 -1.3828846749599129 0.8199167960892242 -1.3908276178021508 0.8165368204116761 -1.3994465557798985 C 0.805720898243522 -1.4281763490390573 0.81366384108576 -1.4599481204080094 0.8172128155471858 -1.4905369002898194 C 0.8209307887924886 -1.5209566813877524 0.819409799737592 -1.5523904551889496 0.813156844734128 -1.582641237503005 C 0.7715831439002865 -1.6446637911860127 0.7202075136015553 -1.6994193971622917 0.661057939244464 -1.7448800700253135 Z" fill="#3e7742" transform="matrix(1,0,0,1,0,0)" fill-rule="nonzero"></path></g><g clip-path="url(#SvgjsClipPath14814307962b88-27d7-4a5b-a98e-11c012d02b45)"><path d=" M 0.25224988104502244 -0.5362007677341163 C 0.613907278542668 -0.5362007677341163 0.9089791551926165 -0.8209637185675429 0.9255410360126017 -1.178565145252131 C 0.9432859083197291 -1.5726703092542382 0.6183012469234805 -1.8995139572731388 0.22419608292137339 -1.8836280715886626 C -0.12867337781464738 -1.8692631749590833 -0.41174634080929995 -1.5836552302062696 -0.42171726905806683 -1.2296027779831071 C -0.4218862678419443 -1.2257158059539268 -0.4186752909482735 -1.2225048290602563 -0.4147883189190932 -1.2225048290602563 L -0.3847065353889151 -1.2225048290602563 C -0.38217155363075406 -1.5677693445217935 -0.09757760158120488 -1.8479693281905303 0.25174288469339023 -1.8479693281905303 C 0.6030913563745142 -1.8479693281905303 0.8890372986950825 -1.562023385869962 0.8890372986950825 -1.2106749141888378 C 0.8890372986950825 -0.8593264425077136 0.6030913563745142 -0.5733805001871453 0.25174288469339023 -0.5733805001871453 C 0.22115410481158015 -0.5733805001871453 0.1763694270840679 -0.5759154819453063 0.14882262531205104 -0.5811544442455059 C 0.14459765571511585 -0.5725355062677582 0.13986568976654867 -0.5639165682900105 0.13513372381798128 -0.5558046266638952 C 0.13259874205982025 -0.5515796570669602 0.13513372381798128 -0.5461716959828831 0.140034688550426 -0.5454957008473733 C 0.17653842586794544 -0.5394117446277868 0.21405615588872906 -0.5362007677341163 0.25224988104502244 -0.5362007677341163 Z" fill="#3e7742" transform="matrix(1,0,0,1,0,0)" fill-rule="nonzero"></path></g><g clip-path="url(#SvgjsClipPath14814307962b88-27d7-4a5b-a98e-11c012d02b45)"><path d=" M -0.37456660835627087 -1.2488686393451314 C -0.3449918211777251 -1.294667309775908 -0.34076685158079 -1.3465499364262712 -0.3000381446663355 -1.3827156761760357 C -0.27739230762676326 -1.4026575326735695 -0.2545774718033137 -1.422937386738858 -0.22804466273456114 -1.43713328458456 C -0.1871469570362293 -1.4592721252724998 -0.13965829876667846 -1.4662010754114734 -0.09757760158120465 -1.4859739331251298 C -0.08219871224836095 -1.4932408808318582 -0.06597482899613005 -1.5045637993516443 -0.06445383994123355 -1.5216326765232622 C -0.06360884602184647 -1.531603604772029 -0.06800281440265898 -1.541236535453041 -0.0732417767028587 -1.5496864746469114 C -0.10585854199119771 -1.603428087919926 -0.1819079947360297 -1.6649436452513011 -0.24426854598679204 -1.6571697011929407 L -0.25576046329045565 -1.6532827291637604 C -0.35530074699424674 -1.5393775488303896 -0.4171543018933769 -1.391672611721538 -0.42171726905806683 -1.2296027779831071 C -0.4218862678419443 -1.2268987974410686 -0.4201962800031702 -1.2243638156829078 -0.4178302970288865 -1.223180824195766 C -0.40262040647992015 -1.2314617646057586 -0.3818335560629993 -1.2377147196092224 -0.37456660835627087 -1.2488686393451314 Z" fill="#3e7742" transform="matrix(1,0,0,1,0,0)" fill-rule="nonzero"></path></g><g clip-path="url(#SvgjsClipPath14814307962b88-27d7-4a5b-a98e-11c012d02b45)"><path d=" M 0.053676309989072135 -1.8226195106089196 C 0.11029090258800256 -1.8028466528952634 0.17467943924529372 -1.8222815130411647 0.231970026979734 -1.8045366407340373 C 0.25174288469339023 -1.7984526845144508 0.2701637521360274 -1.7881437586979292 0.2904436062013158 -1.7837497903171164 C 0.3174834116217007 -1.7780038316652849 0.34553720974534974 -1.7834117927493618 0.37274601394961193 -1.7888197538334387 C 0.42699462357425877 -1.7996356760015926 0.4810742344150283 -1.810620596953624 0.5351538452557978 -1.8214365191217778 C 0.44220451412322515 -1.8648692065782708 0.33793226447086666 -1.887515043617843 0.2280830549505537 -1.88379707037254 C 0.2179431279179096 -1.8800790971272372 0.20797219966914282 -1.8772061178013213 0.19833926898813048 -1.8772061178013213 C 0.15946954869632757 -1.8773751165851986 0.12110682475615686 -1.8714601591494895 0.08308209838374059 -1.862841221171742 C 0.05452130390845933 -1.855405274681136 0.02680550335256504 -1.8462793403517563 -0.00023430206781971386 -1.8354634181836023 L 0.053676309989072135 -1.8226195106089196 Z" fill="#3e7742" transform="matrix(1,0,0,1,0,0)" fill-rule="nonzero"></path></g><g clip-path="url(#SvgjsClipPath14814307962b88-27d7-4a5b-a98e-11c012d02b45)"><path d=" M 0.34215723406780163 -0.5424537227375803 C 0.38998388990510713 -0.5529316473379793 0.4373035493907804 -0.5664515500481717 0.48344021738931175 -0.5833514284359123 C 0.5030440763190909 -0.5904493773587633 0.4979741128027686 -0.6193481694017995 0.47718726238584797 -0.6196861669695544 C 0.4768492648180931 -0.6196861669695544 0.4765112672503382 -0.6196861669695544 0.47617326968258333 -0.6196861669695544 C 0.4381485433101673 -0.6203621621050639 0.3999548181538739 -0.6208691584566961 0.36193009178145785 -0.6239111365664893 C 0.3081884785084432 -0.6281361061634245 0.25461586401930614 -0.6369240429250496 0.2008742507462915 -0.6350650563023981 C 0.19664928114935631 -0.6348960575185207 0.19360730303956308 -0.6357410514379076 0.19141031884915694 -0.6370930417089269 C 0.1849883650618156 -0.6408110149542299 0.17755241857120962 -0.6408110149542299 0.17180645991937782 -0.6374310392766818 C 0.16234252802224303 -0.6083632484497683 0.15000561679919278 -0.5811544442455063 0.13513372381798106 -0.5558046266638954 C 0.1325987420598198 -0.5515796570669604 0.13513372381798106 -0.5461716959828835 0.14003468855042556 -0.545495700847374 C 0.17620042830019012 -0.5394117446277873 0.21321116196934176 -0.5362007677341167 0.2510668895578805 -0.5362007677341167 C 0.28199366700744566 -0.5362007677341163 0.3124134481053784 -0.5383977519245224 0.34215723406780163 -0.5424537227375803 Z" fill="#3e7742" transform="matrix(1,0,0,1,0,0)" fill-rule="nonzero"></path></g></g></g></g><defs><clipPath id="SvgjsClipPath148148"><path d=" M -0.9262349155271503 -1.8841922949960683 h 1.8524698310543006 v 1.6966922949960683 h -1.8524698310543006 Z"></path></clipPath><clipPath id="SvgjsClipPath14814307962b88-27d7-4a5b-a98e-11c012d02b45"><path d=" M -0.9262349155271503 -1.8841922949960683 L 0.9262349155271503 -1.8841922949960683 L 0.9262349155271503 -0.1875 L -0.9262349155271503 -0.1875 Z"></path></clipPath></defs></svg>