<svg xmlns="http://www.w3.org/2000/svg" version="1.1" xmlns:xlink="http://www.w3.org/1999/xlink" viewBox="0 0 8.21697099609375 8.617583186663218"><g transform="matrix(0.8571428571428571,0,0,0.8571428571428571,1.1738529994419644,6.499686459323433)"><rect width="9.987078352678843" height="9.987078352678843" x="-1.5698012613003591" y="-7.5495831866632175" fill="#ffffff"></rect><g transform="matrix(1,0,0,1,0,0)" clip-path="url(#SvgjsClipPath119568)"><g clip-path="url(#SvgjsClipPath119563ef425b89-3998-46a0-8bb1-0904813b88ce)"><path d=" M 4.093571007411311 -4.913836325598712 L 4.093571007411311 -5.510284578715447 C 4.093571007411311 -5.60261604919693 4.074831929266065 -5.690855758944166 4.04091182578796 -5.771030548983322 C 3.990031670570804 -5.891292734042055 3.9051721109953372 -5.9934681506378125 3.798311924863267 -6.0656966227293 C 3.691451738731198 -6.137865793940581 3.5622351207612866 -6.1800880206475926 3.4237675654791655 -6.1800880206475926 L 3.4237675654791655 -6.1800880206475926 C 3.3314360949976822 -6.1800880206475926 3.243196385250446 -6.161348942502346 3.1630215952112906 -6.127428839024242 C 3.0427594101525575 -6.0765486838070855 2.9405839935567997 -5.991689124231619 2.8683555214653116 -5.884828938099549 C 2.796127049373824 -5.778028052847686 2.7539048226668132 -5.648811434877775 2.7539048226668132 -5.5102845787154475 L 2.7539048226668132 -4.913836325598712 C 2.7539048226668132 -4.879026708917511 2.7821320416450956 -4.850858790819435 2.8168823574460906 -4.850858790819435 C 2.8516919741272924 -4.850858790819435 2.879859892225368 -4.879086009797717 2.879859892225368 -4.913836325598712 L 2.879859892225368 -5.5102845787154475 C 2.879859892225368 -5.585537395697465 2.8951002184384325 -5.656935655466063 2.9225565259740307 -5.721929420172359 C 2.9637706377175315 -5.819420067231806 3.032856163158076 -5.902619202161492 3.1196726517803564 -5.961267772685696 C 3.2065484412828438 -6.019916343209902 3.310858689566035 -6.0540736502088315 3.4237082645989587 -6.054132951089038 L 3.4237082645989587 -6.054132951089038 C 3.4989610815809766 -6.054132951089038 3.570359341349574 -6.038892624875974 3.635353106055871 -6.011436317340375 C 3.7328437531153176 -5.970222205596874 3.8160428880450037 -5.90113668015633 3.8746914585692083 -5.814320191534049 C 3.933340029093413 -5.727444402031562 3.9674973360923427 -5.623134153748371 3.9675566369725495 -5.5102845787154475 L 3.9675566369725495 -4.913836325598712 C 3.9675566369725495 -4.879026708917511 3.995783855950832 -4.850858790819435 4.030534171751826 -4.850858790819435 C 4.065343788433028 -4.8508587908194345 4.093571007411311 -4.879086009797717 4.093571007411311 -4.913836325598712 L 4.093571007411311 -4.913836325598712 Z" fill="#e8a941" transform="matrix(1,0,0,1,0,0)" fill-rule="nonzero"></path></g><g clip-path="url(#SvgjsClipPath119563ef425b89-3998-46a0-8bb1-0904813b88ce)"><path d=" M 5.527347689043485 -0.6218758197748118 L 5.358458782215442 -3.127397309378625 L 3.046910471767011 -3.127397309378625 C 2.979129565691009 -2.9005714425888547 2.7689672462392583 -2.7352405885732 2.5200221511324723 -2.7352405885732 C 2.216342343595109 -2.7352405885732 1.9701843898580276 -2.981457843190488 1.9701843898580276 -3.2851376507278514 C 1.9701843898580276 -3.5888174582652144 2.216342343595109 -3.8350347128825026 2.5200221511324723 -3.8350347128825026 C 2.768907945359052 -3.8350347128825026 2.979129565691009 -3.6697038588668476 3.046910471767011 -3.442877992077077 L 5.337169766221317 -3.442877992077077 L 5.239441915641045 -4.89284381400562 C 5.227759642240368 -5.077032347926934 5.075000574828486 -5.220421876266193 4.890396934745728 -5.220421876266193 L 4.152338179695929 -5.220421876266193 L 4.152338179695929 -4.913895626478919 C 4.152338179695929 -4.846707729204982 4.09778136990597 -4.792150919415024 4.030593472632034 -4.792150919415024 C 3.963464876238303 -4.792150919415024 3.9088487655681385 -4.846767030085188 3.9088487655681385 -4.913895626478919 L 3.9088487655681385 -5.220421876266193 L 2.9386863653901925 -5.220421876266193 L 2.9386863653901925 -4.913895626478919 C 2.9386863653901925 -4.846707729204982 2.884070254720028 -4.792150919415024 2.8169416583262974 -4.792150919415024 C 2.7498130619325662 -4.792150919415024 2.6951969512624023 -4.846767030085188 2.6951969512624023 -4.913895626478919 L 2.6951969512624023 -5.220421876266193 L 1.95701959445219 -5.220421876266193 C 1.7725345561298433 -5.220421876266193 1.6196568869575483 -5.076973047046728 1.6079746135568727 -4.89284381400562 L 1.3972192853030572 -1.765433993676492 L 3.9095603761306164 -1.765433993676492 C 3.9773412822066185 -1.9922598604662625 4.1876222034187816 -2.157590714481918 4.436448696765154 -2.157590714481918 C 4.740128504302518 -2.157590714481918 4.986345758919805 -1.9113734598646293 4.986345758919805 -1.6076936523272662 C 4.986345758919805 -1.3040138447899032 4.740128504302518 -1.0577965901726145 4.436448696765154 -1.0577965901726145 C 4.1876222034187816 -1.0577965901726145 3.977341282206618 -1.22312744418827 3.909560376130616 -1.4499533109780405 L 1.3759895701891387 -1.4499533109780405 L 1.3201281410346386 -0.6218758197748118 C 1.3073784517902463 -0.42037142883320566 1.4673722265873181 -0.25 1.6691731219299557 -0.25 L 5.178302708148168 -0.25 C 5.380162904371012 -0.25 5.540097378287878 -0.42037142883320566 5.527347689043485 -0.6218758197748118 Z" fill="#bdbfc3" transform="matrix(1,0,0,1,0,0)" fill-rule="nonzero"></path></g><g clip-path="url(#SvgjsClipPath119563ef425b89-3998-46a0-8bb1-0904813b88ce)"><path d=" M 2.8814017151107363 -3.3354840980231493 C 2.87612393677236 -3.3734366613552935 2.8650939730539555 -3.409550897401038 2.8490827353982073 -3.4428186911968703 C 2.7901969613531765 -3.565275008823243 2.665012803237306 -3.649838063997678 2.520081452012679 -3.649838063997678 C 2.3186956628314865 -3.649838063997678 2.155381038742852 -3.4865827407892502 2.155381038742852 -3.2851376507278514 C 2.155381038742852 -3.0836925606664525 2.3186956628314865 -2.920318635697612 2.520081452012679 -2.920318635697612 C 2.6651314049977186 -2.920318635697612 2.790315563113589 -3.0049409917522523 2.84920133715862 -3.127397309378625 C 2.8651532739341623 -3.160665103174458 2.8762425385327735 -3.196779339220202 2.881461015990943 -3.2347319025523467 L 3.0676657798392775 -3.2347319025523467 L 5.351342676590666 -3.2347319025523467 L 5.344523075366921 -3.3354840980231497 L 3.067547178078865 -3.3354840980231497 L 2.8814017151107363 -3.3354840980231497 Z" fill="#e8a941" transform="matrix(1,0,0,1,0,0)" fill-rule="nonzero"></path></g><g clip-path="url(#SvgjsClipPath119563ef425b89-3998-46a0-8bb1-0904813b88ce)"><path d=" M 4.075128433667096 -1.5572879041517629 C 4.080406212005473 -1.5193353408196177 4.091436175723878 -1.4832211047738735 4.107447413379626 -1.4499533109780414 C 4.166214585664244 -1.3274969933516685 4.29145804466032 -1.2429339381772335 4.436389395884948 -1.2429339381772335 C 4.637834485946347 -1.2429339381772335 4.801208410915187 -1.406189261385661 4.801208410915187 -1.6076343514470608 C 4.801208410915187 -1.8090794415084588 4.637893786826554 -1.9723347647168872 4.436389395884948 -1.9723347647168872 C 4.29145804466032 -1.9723347647168872 4.166214585664244 -1.887771709542453 4.107447413379626 -1.7653153919160802 C 4.091436175723878 -1.7320475981202472 4.080406212005473 -1.695933362074503 4.075128433667096 -1.6579807987423587 L 3.8888643689385556 -1.6579807987423587 L 1.3899845779178672 -1.6579807987423587 L 1.3831649766941223 -1.5572286032715565 L 3.888864368938556 -1.5572286032715565 L 4.075128433667096 -1.5572286032715565 Z" fill="#e8a941" transform="matrix(1,0,0,1,0,0)" fill-rule="nonzero"></path></g><g clip-path="url(#SvgjsClipPath119563ef425b89-3998-46a0-8bb1-0904813b88ce)"><path d=" M 4.824454355956126 -3.4428186911968703 C 4.94370842605135 -4.126320636456712 4.891286447948824 -4.790727698290068 4.828308913169547 -5.220421876266193 L 4.890396934745728 -5.220421876266193 C 5.075000574828486 -5.220421876266193 5.227759642240368 -5.076973047046728 5.239441915641045 -4.892784513125413 L 5.337169766221317 -3.4428186911968703 L 4.824454355956126 -3.4428186911968703 Z" fill="#262626" transform="matrix(1,0,0,1,0,0)" fill-rule="nonzero"></path></g><g clip-path="url(#SvgjsClipPath119563ef425b89-3998-46a0-8bb1-0904813b88ce)"><path d=" M 5.178302708148168 -0.25 L 1.6691138210497494 -0.25 C 1.4673129257071118 -0.25 1.3073191509100397 -0.42037142883320566 1.3201281410346384 -0.6218758197748118 L 1.3332929364404762 -0.8169757156541166 C 2.3792418615222983 -0.8227872019143518 3.1277375714884377 -1.0697753679743238 3.6594292634197005 -1.4499533109780414 L 3.9095010752504096 -1.4499533109780414 C 3.9772819813264113 -1.22312744418827 4.187562902538575 -1.0577965901726154 4.436389395884948 -1.0577965901726154 C 4.740069203422312 -1.0577965901726154 4.986286458039599 -1.3040138447899041 4.986286458039599 -1.6076936523272671 C 4.986286458039599 -1.9113734598646301 4.740069203422312 -2.157590714481918 4.436389395884948 -2.157590714481918 C 4.400808867761063 -2.157590714481918 4.365999251079861 -2.154210564310149 4.332257050242376 -2.1476874674874367 C 4.534888157907904 -2.4534428058320272 4.6699162621380506 -2.7886706816392355 4.756851352520744 -3.127397309378626 L 5.358399481335236 -3.127397309378626 L 5.527288388163279 -0.6218758197748118 C 5.540097378287878 -0.42037142883320566 5.380162904371012 -0.25 5.178302708148168 -0.25 Z" fill="#262626" transform="matrix(1,0,0,1,0,0)" fill-rule="nonzero"></path></g><g clip-path="url(#SvgjsClipPath119563ef425b89-3998-46a0-8bb1-0904813b88ce)"><path d=" M 2.938627064509986 -5.220421876266193 L 3.9087894646879318 -5.220421876266193 L 3.9087894646879318 -5.1478375988934655 C 1.892856042068783 -4.7371197025834135 1.495006436763536 -2.7911020177276997 1.4164920713701619 -2.0515607406727385 L 1.6079746135568727 -4.892784513125413 C 1.6196568869575483 -5.076973047046727 1.7725345561298433 -5.220421876266192 1.95701959445219 -5.220421876266192 L 2.695078349501989 -5.220421876266192 L 2.695078349501989 -4.913895626478919 C 2.695078349501989 -4.846707729204981 2.74975376105236 -4.792091618534817 2.8168823574460906 -4.792091618534817 C 2.8840702547200276 -4.792091618534817 2.9386270645099852 -4.846707729204981 2.9386270645099852 -4.913895626478919 L 2.9386270645099852 -5.220421876266193 Z" fill="#fbe5c1" transform="matrix(1,0,0,1,0,0)" fill-rule="nonzero"></path></g><g clip-path="url(#SvgjsClipPath119563ef425b89-3998-46a0-8bb1-0904813b88ce)"><path d=" M 4.514073548955432 -5.220421876266193 C 4.3885335855583225 -5.214966195287197 4.267974896098557 -5.204232735969825 4.152338179695929 -5.188755206235935 L 4.152338179695929 -5.220421876266193 L 4.514073548955432 -5.220421876266193 Z" fill="#fbe5c1" transform="matrix(1,0,0,1,0,0)" fill-rule="nonzero"></path></g></g><g><path d=" M 0.18 1.0500000000000003 L 0.5565 1.0500000000000003 Q 0.657 1.0500000000000003 0.726 1.0237500000000002 Q 0.795 0.9975000000000003 0.837 0.9555000000000002 Q 0.879 0.9135000000000002 0.89775 0.8602500000000003 Q 0.9165 0.8070000000000003 0.9165 0.7530000000000003 Q 0.9165 0.6675000000000002 0.87975 0.6165000000000003 Q 0.843 0.5655000000000003 0.792 0.5385000000000002 Q 0.741 0.5115000000000003 0.687 0.5025000000000003 Q 0.633 0.49350000000000027 0.6 0.4920000000000002 L 0.6 0.4860000000000002 Q 0.6525 0.4860000000000002 0.6990000000000001 0.4657500000000002 Q 0.7455 0.44550000000000023 0.78075 0.41325000000000023 Q 0.8160000000000001 0.3810000000000002 0.837 0.3382500000000003 Q 0.858 0.2955000000000002 0.858 0.24750000000000028 Q 0.858 0.20550000000000024 0.84 0.16200000000000025 Q 0.8220000000000001 0.11850000000000027 0.78525 0.08250000000000024 Q 0.7485 0.04650000000000021 0.69075 0.023250000000000215 Q 0.633 2.220446049250313e-16 0.555 2.220446049250313e-16 L 0.18 2.220446049250313e-16 L 0.18 1.0500000000000003 M 0.3165 0.9840000000000002 L 0.3165 0.5250000000000002 L 0.4815 0.5250000000000002 Q 0.555 0.5250000000000002 0.609 0.5445000000000002 Q 0.663 0.5640000000000003 0.69825 0.5970000000000002 Q 0.7335 0.6300000000000003 0.75075 0.6735000000000002 Q 0.768 0.7170000000000003 0.768 0.7650000000000002 Q 0.768 0.8175000000000002 0.74925 0.8580000000000003 Q 0.7305 0.8985000000000003 0.6990000000000001 0.9270000000000003 Q 0.6675 0.9555000000000002 0.62475 0.9697500000000002 Q 0.582 0.9840000000000002 0.534 0.9840000000000002 L 0.3165 0.9840000000000002 M 0.3165 0.4590000000000003 L 0.3165 0.06600000000000028 L 0.4995 0.06600000000000028 Q 0.558 0.06600000000000028 0.5992500000000001 0.08250000000000024 Q 0.6405 0.0990000000000002 0.6667500000000001 0.12600000000000022 Q 0.6930000000000001 0.15300000000000025 0.705 0.18750000000000022 Q 0.717 0.2220000000000002 0.717 0.2565000000000003 Q 0.717 0.30000000000000027 0.69975 0.33750000000000024 Q 0.6825 0.3750000000000002 0.65175 0.40200000000000025 Q 0.621 0.42900000000000027 0.58125 0.4440000000000003 Q 0.5415 0.4590000000000003 0.4965 0.4590000000000003 L 0.3165 0.4590000000000003 M 1.11001611328125 2.220446049250313e-16 L 1.11001611328125 0.6450000000000002 Q 1.11001611328125 0.7065000000000002 1.12201611328125 0.7807500000000003 Q 1.13401611328125 0.8550000000000002 1.17901611328125 0.9187500000000003 Q 1.22401611328125 0.9825000000000003 1.31251611328125 1.0252500000000002 Q 1.40101611328125 1.0680000000000003 1.55401611328125 1.0680000000000003 Q 1.65001611328125 1.0680000000000003 1.72426611328125 1.0380000000000003 Q 1.79851611328125 1.0080000000000002 1.84876611328125 0.9555000000000002 Q 1.89901611328125 0.9030000000000002 1.9245161132812498 0.8332500000000003 Q 1.95001611328125 0.7635000000000003 1.95001611328125 0.6840000000000003 L 1.95001611328125 2.220446049250313e-16 L 1.88401611328125 2.220446049250313e-16 L 1.88401611328125 0.6345000000000003 Q 1.88401611328125 0.6675000000000002 1.88251611328125 0.7012500000000003 Q 1.88101611328125 0.7350000000000003 1.8735161132812501 0.7687500000000003 Q 1.8660161132812498 0.8025000000000002 1.8502661132812501 0.8355000000000002 Q 1.83451611328125 0.8685000000000003 1.80451611328125 0.9015000000000003 Q 1.75051611328125 0.9600000000000003 1.68301611328125 0.9810000000000003 Q 1.61551611328125 1.0020000000000002 1.54201611328125 1.0020000000000002 Q 1.4790161132812498 1.0020000000000002 1.43026611328125 0.9825000000000003 Q 1.38151611328125 0.9630000000000003 1.33801611328125 0.9240000000000003 Q 1.3035161132812498 0.8940000000000002 1.28551611328125 0.8640000000000003 Q 1.26751611328125 0.8340000000000003 1.25851611328125 0.8047500000000003 Q 1.24951611328125 0.7755000000000003 1.24801611328125 0.7455000000000003 Q 1.24651611328125 0.7155000000000002 1.24651611328125 0.6855000000000002 L 1.24651611328125 2.220446049250313e-16 L 1.11001611328125 2.220446049250313e-16 M 2.11347216796875 2.220446049250313e-16 L 2.47647216796875 0.6525000000000003 L 2.47647216796875 1.0500000000000003 L 2.61297216796875 1.0500000000000003 L 2.61297216796875 0.6390000000000002 L 2.98197216796875 2.220446049250313e-16 L 2.90097216796875 2.220446049250313e-16 L 2.5799721679687497 0.5535000000000003 L 2.57397216796875 0.5535000000000003 L 2.26797216796875 2.220446049250313e-16 L 2.11347216796875 2.220446049250313e-16 M 3.341937744140625 0.5280000000000002 L 3.970437744140625 0.5280000000000002 L 3.970437744140625 1.0500000000000003 L 4.106937744140625 1.0500000000000003 L 4.106937744140625 2.220446049250313e-16 L 3.970437744140625 2.220446049250313e-16 L 3.970437744140625 0.4590000000000003 L 3.341937744140625 0.4590000000000003 L 3.341937744140625 2.220446049250313e-16 L 3.205437744140625 2.220446049250313e-16 L 3.205437744140625 1.0500000000000003 L 3.341937744140625 1.0500000000000003 L 3.341937744140625 0.5280000000000002 M 4.52544287109375 2.220446049250313e-16 L 4.52544287109375 1.0500000000000003 L 4.66194287109375 1.0500000000000003 L 4.66194287109375 2.220446049250313e-16 L 4.52544287109375 2.220446049250313e-16 M 4.945458984375 2.220446049250313e-16 L 5.384958984374999 1.0500000000000003 L 5.474958984375 1.0500000000000003 L 5.900958984374999 2.220446049250313e-16 L 5.822958984375 2.220446049250313e-16 L 5.473458984375 0.8640000000000003 L 5.467458984375 0.8640000000000003 L 5.107458984375 2.220446049250313e-16 L 4.945458984375 2.220446049250313e-16 M 6.124491210937499 2.220446049250313e-16 L 6.124491210937499 1.0500000000000003 L 6.802491210937499 1.0500000000000003 L 6.802491210937499 0.9675000000000002 L 6.260991210937499 0.9675000000000002 L 6.260991210937499 0.5280000000000002 L 6.7259912109375 0.5280000000000002 L 6.7259912109375 0.4590000000000003 L 6.260991210937499 0.4590000000000003 L 6.260991210937499 0.08250000000000024 L 6.802491210937499 0.08250000000000024 L 6.802491210937499 2.220446049250313e-16 L 6.124491210937499 2.220446049250313e-16" fill="#262626" fill-rule="nonzero"></path></g><g></g></g><defs><clipPath id="SvgjsClipPath119568"><path d=" M 1.3194165304721608 -6.1800880206475926 h 4.208642769133803 v 5.9300880206475926 h -4.208642769133803 Z"></path></clipPath><clipPath id="SvgjsClipPath119563ef425b89-3998-46a0-8bb1-0904813b88ce"><path d=" M 1.3194165304721608 -6.1800880206475926 L 5.528059299605964 -6.1800880206475926 L 5.528059299605964 -0.25 L 1.3194165304721608 -0.25 Z"></path></clipPath></defs></svg>